<svg version="1.1" id="Layer_1" xmlns="http://www.w3.org/2000/svg" xmlns:xlink="http://www.w3.org/1999/xlink" x="0px" y="0px"
	 width="100%" viewBox="0 0 707 353" enable-background="new 0 0 707 353" xml:space="preserve">
<path fill="#000000" opacity="1.000000" stroke="none" 
	d="
M412.000000,354.000000 
	C274.698914,354.000000 137.897827,354.000000 1.048373,354.000000 
	C1.048373,236.393326 1.048373,118.786636 1.048373,1.089970 
	C236.551117,1.089970 472.102264,1.089970 707.826721,1.089970 
	C707.826721,118.666466 707.826721,236.333206 707.826721,354.000000 
	C609.453247,354.000000 510.976624,354.000000 412.000000,354.000000 
M498.593811,223.807556 
	C499.338928,223.507263 500.084045,223.206970 501.681549,222.760574 
	C502.504486,222.527664 503.327423,222.294754 504.283630,222.283920 
	C504.283630,222.283920 504.496185,222.137207 504.496185,222.137207 
	C504.496185,222.137207 504.399841,221.896011 504.990540,221.670288 
	C505.257355,221.358459 505.524170,221.046616 506.420715,220.246414 
	C506.520630,203.872131 506.657898,187.497925 506.683350,171.123520 
	C506.687561,168.420425 506.201874,165.716568 505.903229,162.165451 
	C505.795715,160.761780 505.688171,159.358109 505.759583,157.127197 
	C505.671265,155.446594 505.582916,153.766006 505.732391,151.176712 
	C505.796265,147.112274 505.860138,143.047852 506.511566,138.590500 
	C506.077515,137.001129 505.643463,135.411774 505.083954,133.924454 
	C505.083954,133.924454 505.176117,133.791595 504.936829,133.186752 
	C503.937988,132.885605 502.939178,132.584442 501.440094,131.769012 
	C500.506744,131.569031 499.573364,131.369034 498.297424,130.702347 
	C497.570557,130.680740 496.843689,130.659119 495.446075,130.329758 
	C495.213593,130.249466 494.981079,130.169174 494.666504,129.752243 
	C494.666504,129.752243 494.368042,129.583298 494.368042,129.583298 
	C494.368042,129.583298 494.097351,129.793747 493.344055,129.481674 
	C482.379425,126.227409 471.437866,122.892769 460.445862,119.733803 
	C426.044067,109.847160 391.624512,100.022224 357.204407,90.199471 
	C355.979675,89.849960 354.559021,89.339828 353.427948,89.643341 
	C344.458221,92.050278 335.523041,94.589638 326.602966,97.177040 
	C306.095001,103.125671 285.604950,109.135857 265.101410,115.099640 
	C245.537369,120.790146 225.941238,126.373543 206.441055,132.274506 
	C204.809555,132.768219 202.681931,135.310791 202.669296,136.916290 
	C202.457031,163.889343 202.586563,190.864868 202.508316,217.839462 
	C202.499359,220.928818 203.584961,222.008789 206.559311,222.843842 
	C227.287415,228.663162 247.935837,234.765961 268.617554,240.751053 
	C293.744324,248.022491 318.858246,255.339828 344.029358,262.454803 
	C348.369537,263.681610 353.177948,265.215088 357.399841,264.480103 
	C365.649170,263.044037 373.646088,260.137329 381.731384,257.784027 
	C403.215424,251.530884 424.698151,245.273178 446.167206,238.969009 
	C461.752106,234.392685 477.314423,229.739334 493.535217,225.276703 
	C494.940186,224.802567 496.345184,224.328430 497.881104,223.847641 
	C497.881104,223.847641 497.947662,223.734665 498.593811,223.807556 
z"/>
<path fill="#BD242C" opacity="1.000000" stroke="none" 
	d="
M505.923981,138.983414 
	C505.860138,143.047852 505.796265,147.112274 505.443268,151.919601 
	C505.296295,154.426468 505.438477,156.190460 505.580627,157.954437 
	C505.688171,159.358109 505.795715,160.761780 505.654785,162.903992 
	C505.277863,164.287323 505.037872,164.931961 505.037018,165.576920 
	C505.014679,182.677078 505.000397,199.777313 505.048706,216.877350 
	C505.052368,218.163849 505.532410,219.449020 505.790955,220.734802 
	C505.524170,221.046616 505.257355,221.358459 504.653809,221.809402 
	C504.317047,221.948517 504.150360,222.061844 504.150360,222.061844 
	C503.327423,222.294754 502.504486,222.527664 500.942993,222.829071 
	C499.452209,223.176605 498.699921,223.455643 497.947662,223.734680 
	C497.947662,223.734665 497.881104,223.847641 497.473389,223.856659 
	C495.672699,224.283890 494.279724,224.702103 492.886780,225.120300 
	C477.314423,229.739334 461.752106,234.392685 446.167206,238.969009 
	C424.698151,245.273178 403.215424,251.530884 381.731384,257.784027 
	C373.646088,260.137329 365.649170,263.044037 357.399841,264.480103 
	C353.177948,265.215088 348.369537,263.681610 344.029358,262.454803 
	C318.858246,255.339828 293.744324,248.022491 268.617554,240.751053 
	C247.935837,234.765961 227.287415,228.663162 206.559311,222.843842 
	C203.584961,222.008789 202.499359,220.928818 202.508316,217.839462 
	C202.586563,190.864868 202.457031,163.889343 202.669296,136.916290 
	C202.681931,135.310791 204.809555,132.768219 206.441055,132.274506 
	C225.941238,126.373543 245.537369,120.790146 265.101410,115.099640 
	C285.604950,109.135857 306.095001,103.125671 326.602966,97.177040 
	C335.523041,94.589638 344.458221,92.050278 353.427948,89.643341 
	C354.559021,89.339828 355.979675,89.849960 357.204407,90.199471 
	C391.624512,100.022224 426.044067,109.847160 460.445862,119.733803 
	C471.437866,122.892769 482.379425,126.227409 493.816956,129.706894 
	C494.289825,129.932114 494.748535,130.088882 494.748535,130.088882 
	C494.981079,130.169174 495.213593,130.249466 496.001404,130.618286 
	C497.251129,130.994232 497.945587,131.081650 498.640015,131.169052 
	C499.573364,131.369034 500.506744,131.569031 501.873718,132.282867 
	C503.263611,133.128342 504.219879,133.459976 505.176117,133.791595 
	C505.176117,133.791595 505.083954,133.924454 505.073883,134.267334 
	C505.350525,136.067947 505.637268,137.525681 505.923981,138.983414 
M403.302185,109.080215 
	C402.869324,109.154564 402.436462,109.228912 401.369629,109.092819 
	C400.929596,109.033424 400.489563,108.974030 399.589874,108.437622 
	C398.733734,108.266449 397.877563,108.095276 396.513428,107.445557 
	C395.365479,107.262184 394.217560,107.078812 392.592285,106.401848 
	C391.072968,105.865364 389.553680,105.328873 387.857269,104.177643 
	C387.124176,103.887482 386.391113,103.597321 384.851715,103.258347 
	C383.233459,103.181900 381.615204,103.105453 379.535278,102.475349 
	C363.408844,95.062752 347.242157,93.881157 330.376038,102.146149 
	C329.586182,102.449951 328.796356,102.753754 327.260773,103.018471 
	C325.498291,103.669548 323.735840,104.320618 321.190430,105.030312 
	C316.800415,106.374580 312.410431,107.718849 307.346344,109.027351 
	C306.902985,109.097412 306.459625,109.167465 305.316406,109.126450 
	C303.871216,109.742393 302.426025,110.358337 300.299133,110.951363 
	C299.153809,111.528114 298.008514,112.104866 296.123474,112.719559 
	C294.723389,113.060806 293.323303,113.402046 291.273224,113.766479 
	C290.842377,113.815826 290.411499,113.865173 289.204163,114.004105 
	C285.231720,115.127396 281.232300,116.164398 277.293304,117.394798 
	C271.793365,119.112793 266.338531,120.975220 260.056061,122.806747 
	C255.327820,124.117073 250.599564,125.427406 245.120392,126.875977 
	C241.017899,128.126373 236.915405,129.376785 232.014618,130.727066 
	C225.650421,132.372559 219.327682,134.211838 212.905350,135.585556 
	C209.455582,136.323441 208.557953,138.052780 209.149536,142.060883 
	C209.208908,147.401794 209.268280,152.742722 209.154449,158.994522 
	C209.158798,171.453369 209.114349,183.912537 209.194321,196.370895 
	C209.221786,200.650528 209.560181,204.928162 209.704514,210.082626 
	C210.394501,213.257278 207.767761,217.569077 213.317352,219.025314 
	C222.739700,221.497803 232.069946,224.320496 241.444244,226.977066 
	C276.787384,236.992813 312.122009,247.039185 347.495880,256.945343 
	C350.609985,257.817413 354.196472,258.657501 357.202057,257.958313 
	C367.043488,255.668930 376.717194,252.659225 386.456543,249.930496 
	C400.637360,245.957367 414.819214,241.987701 429.751465,238.029861 
	C431.183319,237.491058 432.615143,236.952255 434.684448,236.229218 
	C435.124115,236.181702 435.563812,236.134186 436.441895,236.492752 
	C437.973602,235.874710 439.505310,235.256653 441.696533,234.410660 
	C442.156250,234.339905 442.615967,234.269150 443.583221,234.580139 
	C449.052704,232.726212 454.522156,230.872269 459.999023,228.987274 
	C459.999023,228.987274 460.028931,228.998627 460.723633,229.018631 
	C461.808289,228.766235 462.892975,228.513840 464.444427,228.104355 
	C464.444427,228.104355 464.921478,227.981964 465.348694,227.845566 
	C465.622437,227.707031 465.842072,227.508591 466.663208,227.135406 
	C467.106201,227.109604 467.549164,227.083801 468.457611,227.482224 
	C470.642639,226.672485 472.827667,225.862747 475.010773,224.995972 
	C475.010773,224.995972 475.054718,225.032455 475.873169,225.037476 
	C483.576721,222.685242 491.280243,220.333023 499.102142,217.466415 
	C499.148254,217.296631 499.194336,217.126831 499.688721,216.278625 
	C499.546967,206.530594 499.405182,196.782562 499.156494,186.348145 
	C499.127472,185.885941 499.098419,185.423721 499.589630,184.398132 
	C500.045624,169.413895 500.564575,154.430801 500.834259,139.443222 
	C500.855133,138.284973 499.123535,137.095184 497.485291,135.686462 
	C496.010376,135.332031 494.535431,134.977600 492.904572,134.090286 
	C492.452820,133.817078 492.001038,133.543854 490.772797,133.277466 
	C486.868805,132.415909 482.964783,131.554337 478.857544,130.096283 
	C478.118042,129.812958 477.378540,129.529633 475.870422,129.222046 
	C474.598907,129.067612 473.327423,128.913177 471.861420,128.145340 
	C471.115356,127.851570 470.369263,127.557793 468.959625,127.242599 
	C468.299438,127.261826 467.639252,127.281052 466.353638,127.060875 
	C465.920319,126.954140 465.486969,126.847404 464.835846,126.103844 
	C463.806335,125.798485 462.776825,125.493118 461.003387,125.157616 
	C460.023712,125.007439 459.044067,124.857269 457.830200,124.075546 
	C456.788605,123.789360 455.747009,123.503174 453.969757,123.186707 
	C453.000092,123.042023 452.030457,122.897339 450.862946,122.144356 
	C450.122101,121.852776 449.381287,121.561195 447.988312,121.259567 
	C447.337555,121.218857 446.686768,121.178139 445.586548,120.579338 
	C443.965698,120.116821 442.344818,119.654305 439.985687,119.160561 
	C439.010071,119.030991 438.034424,118.901413 436.838867,118.121613 
	C435.787292,117.826607 434.735718,117.531601 432.911346,117.177231 
	C431.629272,117.027893 430.347229,116.878548 428.838104,116.087868 
	C425.189087,115.084534 421.540100,114.081200 417.268646,113.034683 
	C416.861420,112.950706 416.454163,112.866730 415.812317,112.120331 
	C411.862122,111.095245 407.911896,110.070160 403.302185,109.080215 
z"/>
<path fill="#921B1F" opacity="1.000000" stroke="none" 
	d="
M506.105835,220.490601 
	C505.532410,219.449020 505.052368,218.163849 505.048706,216.877350 
	C505.000397,199.777313 505.014679,182.677078 505.037018,165.576920 
	C505.037872,164.931961 505.277863,164.287323 505.674500,163.327789 
	C506.201874,165.716568 506.687561,168.420425 506.683350,171.123520 
	C506.657898,187.497925 506.520630,203.872131 506.105835,220.490601 
z"/>
<path fill="#921B1F" opacity="1.000000" stroke="none" 
	d="
M506.217773,138.786957 
	C505.637268,137.525681 505.350525,136.067947 505.136597,134.216309 
	C505.643463,135.411774 506.077515,137.001129 506.217773,138.786957 
z"/>
<path fill="#921B1F" opacity="1.000000" stroke="none" 
	d="
M493.210999,225.198517 
	C494.279724,224.702103 495.672699,224.283890 497.407898,223.859985 
	C496.345184,224.328430 494.940186,224.802567 493.210999,225.198517 
z"/>
<path fill="#921B1F" opacity="1.000000" stroke="none" 
	d="
M505.670105,157.540817 
	C505.438477,156.190460 505.296295,154.426468 505.324341,152.373947 
	C505.582916,153.766006 505.671265,155.446594 505.670105,157.540817 
z"/>
<path fill="#921B1F" opacity="1.000000" stroke="none" 
	d="
M505.056458,133.489166 
	C504.219879,133.459976 503.263611,133.128342 502.123840,132.540009 
	C502.939178,132.584442 503.937988,132.885605 505.056458,133.489166 
z"/>
<path fill="#921B1F" opacity="1.000000" stroke="none" 
	d="
M498.468719,130.935699 
	C497.945587,131.081650 497.251129,130.994232 496.336761,130.772156 
	C496.843689,130.659119 497.570557,130.680740 498.468719,130.935699 
z"/>
<path fill="#921B1F" opacity="1.000000" stroke="none" 
	d="
M498.270752,223.771118 
	C498.699921,223.455643 499.452209,223.176605 500.516846,222.902130 
	C500.084045,223.206970 499.338928,223.507263 498.270752,223.771118 
z"/>
<path fill="#921B1F" opacity="1.000000" stroke="none" 
	d="
M504.216980,222.172882 
	C504.150360,222.061844 504.317047,221.948517 504.358459,221.922272 
	C504.399841,221.896011 504.496185,222.137207 504.496185,222.137207 
	C504.496185,222.137207 504.283630,222.283920 504.216980,222.172882 
z"/>
<path fill="#921B1F" opacity="1.000000" stroke="none" 
	d="
M494.707520,129.920563 
	C494.748535,130.088882 494.289825,129.932114 494.193604,129.862930 
	C494.097351,129.793747 494.368042,129.583298 494.368042,129.583298 
	C494.368042,129.583298 494.666504,129.752243 494.707520,129.920563 
z"/>
<path fill="#030202" opacity="1.000000" stroke="none" 
	d="
M436.003479,236.086670 
	C435.563812,236.134186 435.124115,236.181702 434.023315,236.348877 
	C431.908356,236.984543 430.454468,237.500565 429.000610,238.016571 
	C414.819214,241.987701 400.637360,245.957367 386.456543,249.930496 
	C376.717194,252.659225 367.043488,255.668930 357.202057,257.958313 
	C354.196472,258.657501 350.609985,257.817413 347.495880,256.945343 
	C312.122009,247.039185 276.787384,236.992813 241.444244,226.977066 
	C232.069946,224.320496 222.739700,221.497803 213.317352,219.025314 
	C207.767761,217.569077 210.394501,213.257278 209.821686,209.246582 
	C211.529663,204.004395 211.125946,199.670975 210.288300,195.101730 
	C209.798813,192.431656 211.156540,189.408203 211.749313,186.557465 
	C213.108429,180.021103 214.508072,173.493164 215.920395,166.639832 
	C215.938766,165.887146 215.927994,165.456436 215.941315,164.698181 
	C215.985779,163.933228 216.006195,163.495804 216.305832,162.743500 
	C216.723618,158.312836 216.682449,154.179398 217.084229,150.089462 
	C217.258560,148.314850 218.344818,146.629837 219.365494,144.790176 
	C226.240784,142.560837 232.814026,140.575790 239.272156,138.268585 
	C242.015533,137.288498 244.517685,135.633270 247.516449,134.208786 
	C255.892746,130.758545 263.894714,131.143112 271.940063,134.418808 
	C271.939392,137.877914 266.423035,140.391342 270.685486,144.153168 
	C263.257690,147.586838 256.149200,150.838684 248.726791,154.213135 
	C245.946121,156.230209 243.479370,158.124680 240.788269,160.118088 
	C240.284485,160.413620 240.098465,160.676361 239.697937,161.147217 
	C235.436508,163.806061 232.060135,166.603668 234.152283,172.381424 
	C234.087585,173.123398 234.020905,173.544434 233.627762,174.092972 
	C232.157669,175.220276 231.014053,176.220078 229.104218,177.889709 
	C231.362671,178.353409 232.426361,178.704346 233.507812,178.772156 
	C240.099457,179.185425 246.693405,179.676102 253.291245,179.755753 
	C254.311264,179.768066 256.132446,177.885056 256.263123,176.729294 
	C257.171356,168.696854 260.366760,161.958374 267.368774,157.757935 
	C279.028473,150.763428 291.889618,157.192764 297.046814,169.076920 
	C298.022339,171.324921 298.913940,173.609360 299.844269,175.876984 
	C300.364380,175.671600 300.884460,175.466217 301.404572,175.260834 
	C303.259491,166.026596 300.729645,158.100677 292.449432,151.321167 
	C296.704559,151.321167 299.813263,151.005493 302.832642,151.390518 
	C308.202026,152.075241 313.517273,153.184372 319.076874,154.340424 
	C319.904205,154.613907 320.509796,154.662933 321.359070,154.769958 
	C321.767151,154.856628 321.931641,154.885284 322.287476,155.185822 
	C323.335358,155.502853 324.191803,155.548035 325.299866,155.674530 
	C325.718353,155.812714 325.885223,155.869537 326.252869,156.240768 
	C334.338348,159.026031 342.223022,161.496902 350.191498,164.141861 
	C350.445160,164.551605 350.671753,164.637436 351.319702,164.648041 
	C352.172272,164.657089 352.660248,164.591537 353.382080,164.624969 
	C353.772308,164.789032 353.928619,164.854126 354.253784,165.222214 
	C359.157043,167.299271 363.248535,171.721313 369.380676,169.031921 
	C370.437866,168.623734 371.169861,168.261505 372.156464,167.841034 
	C372.583099,167.755402 372.755096,167.728027 373.346375,167.791992 
	C375.186249,167.821869 376.606873,167.760422 378.362976,167.713165 
	C379.144257,167.687607 379.589966,167.647842 380.474182,167.720154 
	C384.175354,168.120926 387.495575,168.120163 390.689667,168.754471 
	C399.086365,170.421936 399.064484,170.532043 400.202637,162.707153 
	C402.707275,155.475922 408.216309,152.883759 415.255615,151.771240 
	C418.712555,150.731628 421.811920,149.799347 425.351013,148.899841 
	C428.853302,149.278610 431.915833,149.624619 435.136505,150.273834 
	C438.179260,152.757645 441.063873,154.938232 444.002808,157.472275 
	C446.383820,162.544769 448.710480,167.263840 451.171936,172.306885 
	C452.245270,173.346634 453.183807,174.062424 454.122314,174.778214 
	C455.069916,173.162003 456.742065,171.587906 456.838837,169.922272 
	C457.242706,162.970764 454.805573,156.734833 450.802246,150.663177 
	C446.096741,149.554443 441.608521,148.769363 436.978088,147.692795 
	C436.079773,146.457199 435.323669,145.513107 434.051849,143.925064 
	C437.909454,143.144989 441.055786,142.600510 444.141113,141.816086 
	C444.853760,141.634918 445.357697,140.632782 446.369629,140.025116 
	C453.350159,138.648636 459.699982,135.755554 466.527435,137.402008 
	C466.290771,137.841553 466.200439,138.019684 465.801086,138.160599 
	C465.660339,139.369125 465.828674,140.614838 466.070374,142.197235 
	C467.396423,143.628082 468.649139,144.722260 470.020935,146.109558 
	C470.745483,146.974747 471.350952,147.546814 471.947968,148.526657 
	C472.327240,151.282181 472.714935,153.629913 473.191132,156.302185 
	C473.470673,157.705719 473.661774,158.784729 473.622192,160.191956 
	C472.081207,170.856247 476.669617,178.549026 485.809143,181.810944 
	C482.228088,182.737656 478.693817,183.271133 475.054352,183.820480 
	C478.033417,190.445969 474.698120,196.089401 472.118530,202.218307 
	C476.541504,202.218307 480.851440,202.462112 485.105774,202.082458 
	C486.542175,201.954269 487.837616,200.246063 489.197479,199.259933 
	C488.460144,198.480347 487.722778,197.700760 487.006531,196.520447 
	C487.003723,195.050476 486.979797,193.981216 486.993744,192.535553 
	C488.811523,189.579544 490.591370,186.999939 492.108337,184.801361 
	C489.923279,183.094086 488.715149,182.150146 487.937500,181.176849 
	C491.284424,181.763535 494.200958,182.379547 497.193115,183.277832 
	C497.868988,184.027237 498.469177,184.494370 499.069366,184.961517 
	C499.098419,185.423721 499.127472,185.885941 499.123077,187.150299 
	C499.139923,197.620651 499.190186,207.288849 499.240448,216.957031 
	C499.194336,217.126831 499.148254,217.296631 498.641541,217.766479 
	C490.472168,220.388519 482.763428,222.710480 475.054718,225.032440 
	C475.054718,225.032455 475.010773,224.995972 474.625610,225.015167 
	C472.157715,225.708893 470.074921,226.383438 467.992157,227.057999 
	C467.549164,227.083801 467.106201,227.109604 466.087646,227.175446 
	C465.197266,227.380096 465.000397,227.635590 464.921478,227.981964 
	C464.921478,227.981964 464.444427,228.104355 463.858337,228.111221 
	C462.191132,228.411606 461.110046,228.705109 460.028931,228.998627 
	C460.028931,228.998627 459.999023,228.987274 459.593170,229.001099 
	C453.816772,230.742752 448.446228,232.470581 443.075684,234.198395 
	C442.615967,234.269150 442.156250,234.339905 441.039154,234.426422 
	C438.922333,234.990341 437.462921,235.538498 436.003479,236.086670 
M345.150482,188.288651 
	C343.720886,183.261627 341.303650,182.318527 335.772461,184.295227 
	C337.773193,190.925842 335.281769,196.457581 331.968018,201.947418 
	C334.571503,201.947418 337.113708,201.947418 339.081177,201.947418 
	C339.081177,198.768768 339.081177,195.906998 339.081177,193.045242 
	C339.548706,193.018707 340.016235,192.992188 340.483765,192.965652 
	C341.003754,195.921173 341.523773,198.876709 342.011993,201.651672 
	C346.955933,201.651672 351.903625,201.651672 356.746735,201.651672 
	C355.665192,195.514526 356.521484,189.610107 360.718689,184.552734 
	C351.210999,180.210037 349.568024,188.487122 346.409485,194.363602 
	C346.036407,194.169403 345.663330,193.975189 345.290253,193.780991 
	C345.290253,192.218445 345.290253,190.655884 345.150482,188.288651 
M387.078735,197.389206 
	C389.585663,193.409576 389.952881,189.215408 386.933624,185.557297 
	C383.844238,181.814209 379.435608,182.178558 375.646759,184.188019 
	C373.315216,185.424576 370.632141,187.746170 370.031525,190.076584 
	C369.193573,193.328094 369.132416,197.631119 370.700409,200.355057 
	C371.763580,202.202011 376.332672,203.032867 379.082275,202.624512 
	C381.817780,202.218231 384.239044,199.695999 387.078735,197.389206 
M260.214966,202.178757 
	C267.398376,198.366180 263.484406,188.790741 270.612183,183.935272 
	C267.511047,183.528122 265.467010,183.015137 263.463379,183.141891 
	C262.841431,183.181244 261.607941,185.287674 261.881866,185.883392 
	C263.911682,190.298019 261.839905,194.036346 259.972412,197.637695 
	C259.436157,198.671783 257.166779,199.242249 255.737595,199.166458 
	C255.156616,199.135651 254.052750,196.672668 254.298584,195.562515 
	C255.164215,191.653473 256.512115,187.851212 257.715027,183.883270 
	C256.843567,183.883270 255.204453,183.883270 253.565338,183.883270 
	C251.999802,183.883270 250.434265,183.883270 249.441620,183.883270 
	C249.441620,187.167114 249.771973,189.798676 249.382812,192.319138 
	C247.923294,201.772003 250.361832,204.272095 260.214966,202.178757 
M315.602264,202.274323 
	C321.150818,201.120270 323.423859,196.791382 323.907593,192.020126 
	C324.150208,189.627625 322.396576,186.253036 320.458527,184.588562 
	C316.904999,181.536652 312.696991,182.681488 308.976685,185.081528 
	C304.883759,187.721954 302.726807,194.240768 304.557892,198.150360 
	C306.454834,202.200577 309.983978,203.641205 315.602264,202.274323 
M234.930740,191.476562 
	C234.439774,188.771271 233.948822,186.065994 233.306519,182.526764 
	C224.192352,185.643005 224.188446,195.910858 216.603058,201.445755 
	C219.688004,201.445755 221.266617,201.445755 222.838776,201.445755 
	C223.519684,196.591400 223.746872,196.482803 231.254654,197.529984 
	C230.569733,199.012299 229.943054,200.368576 229.246277,201.876556 
	C232.114365,201.876556 234.760193,201.876556 237.200089,201.876556 
	C236.406860,198.450821 235.699509,195.395859 234.930740,191.476562 
M296.668854,183.691605 
	C291.585266,183.462738 286.461945,182.749893 281.430969,183.162567 
	C277.605072,183.476410 277.608795,186.547516 278.539551,189.882629 
	C280.672974,188.613968 282.233704,187.685852 283.794464,186.757736 
	C284.173309,187.078918 284.552155,187.400101 284.931030,187.721283 
	C283.344727,192.526917 281.758453,197.332535 280.235718,201.945679 
	C282.512817,201.945679 285.677094,201.945679 287.537109,201.945679 
	C288.395874,196.517761 289.168304,191.635498 290.024445,186.224228 
	C292.413483,187.799393 293.744080,188.676682 295.074646,189.553955 
	C295.755951,187.848175 296.437256,186.142395 296.668854,183.691605 
M406.827942,202.286255 
	C407.771393,202.170486 408.714813,202.054703 409.759979,201.926453 
	C407.648956,197.634720 409.050720,189.851013 412.280792,186.886703 
	C413.273499,187.959747 414.266174,189.032791 415.813660,190.705505 
	C416.746155,187.958328 417.384277,186.078415 418.185638,183.717575 
	C412.816742,183.454269 408.152283,183.106445 403.483276,183.028732 
	C398.438110,182.944763 397.584961,184.618011 399.821899,189.796829 
	C401.320038,188.739548 402.819946,187.681046 405.475250,185.807114 
	C404.482697,189.823227 404.018463,192.349121 403.217194,194.763138 
	C402.403625,197.214050 401.257477,199.554535 400.112335,202.288818 
	C402.110291,202.288818 404.071472,202.288818 406.827942,202.286255 
M461.852051,183.871017 
	C460.876587,183.938522 459.901154,184.006042 458.925690,184.073547 
	C459.328400,184.321579 459.731140,184.569595 460.133850,184.817627 
	C458.460632,188.335541 456.787445,191.853455 455.114258,195.371368 
	C454.693268,195.240875 454.272308,195.110382 453.851318,194.979889 
	C453.851318,191.380157 453.851318,187.780441 453.851318,184.223053 
	C451.561188,184.223053 448.700226,184.223053 446.306213,184.223053 
	C447.306091,189.231476 448.119781,193.999954 449.280457,198.682404 
	C449.611877,200.019348 450.789307,201.868988 451.871063,202.097000 
	C452.981903,202.331131 454.919434,201.194183 455.681854,200.093750 
	C459.211487,194.999435 462.458191,189.709106 466.024475,184.148636 
	C464.774414,184.035706 463.699707,183.938614 461.852051,183.871017 
M428.074310,189.354019 
	C426.937164,193.542023 425.799988,197.730042 424.669647,201.892944 
	C427.199036,201.892944 430.380219,201.892944 433.148132,201.892944 
	C431.121094,195.087677 433.137268,189.505463 437.049316,183.906570 
	C433.291077,183.906570 429.771301,183.906570 426.242920,183.906570 
	C427.020325,185.833405 427.551727,187.150543 428.074310,189.354019 
M343.322876,207.858185 
	C340.405212,208.978287 338.617584,211.397324 340.322754,213.937775 
	C341.474670,215.653870 344.632263,216.732773 346.871643,216.698959 
	C347.929016,216.682999 349.867828,213.327469 349.758484,211.588715 
	C349.574524,208.662308 347.473969,206.696701 343.322876,207.858185 
M357.142334,211.663910 
	C357.165344,212.159271 357.047638,212.716385 357.233673,213.140182 
	C358.704803,216.491440 361.446320,218.112274 364.785980,216.812820 
	C368.243317,215.467575 367.260834,212.481995 365.875854,210.005997 
	C365.242584,208.873871 363.644684,207.058258 363.211578,207.244446 
	C361.095032,208.154419 359.223755,209.634933 357.142334,211.663910 
M265.140778,215.459564 
	C267.613831,215.574783 270.237152,216.199692 272.481201,215.538147 
	C273.304260,215.295517 274.023865,211.665909 273.388031,210.182541 
	C272.279449,207.596237 269.249207,206.194534 266.974792,208.146042 
	C265.499634,209.411728 265.545715,212.450424 265.140778,215.459564 
M417.996552,212.464264 
	C417.902313,210.949570 417.808044,209.434875 417.653076,206.944885 
	C415.931610,208.494278 415.034149,209.302017 414.323975,209.941177 
	C413.357849,209.137466 412.511078,208.433014 411.417358,207.523148 
	C411.417358,211.139603 411.417358,214.056290 411.417358,216.972977 
	C411.764404,217.017349 412.111450,217.061722 412.458527,217.106094 
	C413.038361,215.964493 413.618225,214.822906 414.282349,213.515457 
	C415.124908,214.945068 415.810699,216.108597 416.496460,217.272125 
	C416.866364,217.160141 417.236298,217.048157 417.606201,216.936172 
	C417.734772,215.741669 417.863342,214.547165 417.996552,212.464264 
M398.855774,209.882401 
	C398.619873,209.198380 398.383972,208.514359 397.741425,206.651215 
	C397.092285,208.976639 396.776703,210.107117 396.520569,211.024628 
	C394.914246,209.725449 393.567688,208.636368 391.708221,207.132462 
	C391.708221,211.134674 391.708221,214.048325 391.708221,216.092545 
	C394.368530,216.092545 396.458588,216.092545 398.862396,216.092545 
	C398.862396,214.665955 398.862396,212.697250 398.855774,209.882401 
M281.810364,213.821579 
	C282.146118,216.519852 283.955048,218.006180 286.244110,216.889771 
	C290.163635,214.978210 289.181213,211.321503 288.667725,208.037628 
	C288.177063,207.896164 287.686401,207.754700 287.195740,207.613251 
	C286.650116,209.690048 286.104492,211.766861 285.426178,214.348679 
	C284.721771,211.755264 284.165405,209.706894 283.609070,207.658524 
	C282.997925,207.750092 282.386810,207.841660 281.775665,207.933228 
	C281.775665,209.631805 281.775665,211.330399 281.810364,213.821579 
M439.102295,209.777969 
	C439.102295,212.064087 439.102295,214.350204 439.102295,216.743073 
	C441.594696,216.743073 443.525726,216.743073 445.674652,216.743073 
	C445.447357,215.206589 445.018585,213.928818 445.117004,212.693024 
	C445.542938,207.343964 444.593048,206.700333 439.102295,209.777969 
M382.939880,214.236359 
	C382.269958,212.557648 381.836761,210.712204 380.824249,209.274796 
	C380.359589,208.615189 377.922333,208.348175 377.800018,208.598190 
	C376.551270,211.149948 375.595093,213.844849 374.935089,215.533051 
	C377.900299,216.233810 379.688507,216.808975 381.513855,216.974747 
	C381.941528,217.013580 382.494995,215.666702 382.939880,214.236359 
M318.434662,211.446198 
	C318.561188,210.306107 318.981750,209.080322 318.685394,208.063507 
	C318.545441,207.583359 316.664795,207.010651 316.215637,207.344543 
	C315.260468,208.054596 314.227081,209.285004 314.127228,210.384033 
	C313.944794,212.391586 314.416870,214.458618 314.700592,217.368942 
	C316.263641,216.725525 318.114960,216.107040 319.751617,215.129257 
	C319.987335,214.988419 319.189819,213.118149 318.434662,211.446198 
M300.303925,207.828278 
	C293.804443,209.176773 298.938263,213.809448 297.154297,216.717041 
	C299.488251,216.717041 301.164825,216.717041 303.359406,216.717041 
	C302.567047,213.527359 301.862701,210.691925 300.303925,207.828278 
M453.949341,212.424622 
	C454.020844,213.882324 454.092346,215.340027 454.174316,217.010605 
	C456.040039,216.922409 457.612854,216.848053 458.848602,216.789642 
	C458.848602,213.630707 458.848602,210.873459 458.848602,208.024231 
	C457.337494,208.024231 455.886627,208.024231 454.187744,208.024231 
	C454.103027,209.256714 454.025848,210.378845 453.949341,212.424622 
M251.430237,214.972305 
	C251.934647,215.749573 252.439072,216.526840 253.119812,217.575821 
	C254.564758,213.868546 255.667709,211.038696 256.752197,208.256226 
	C254.119247,208.256226 251.922241,208.256226 249.735077,208.256226 
	C250.459488,210.448029 251.094559,212.369492 251.430237,214.972305 
M330.639557,209.067169 
	C329.076355,207.216705 327.989014,207.329742 327.830902,209.893219 
	C327.692230,212.141953 327.801941,214.405991 327.801941,217.163116 
	C330.009552,216.887878 331.713470,216.675430 332.580688,216.567307 
	C331.811859,213.869415 331.247772,211.889984 330.639557,209.067169 
z"/>
<path fill="#524B4C" opacity="1.000000" stroke="none" 
	d="
M416.046936,112.782745 
	C416.454163,112.866730 416.861420,112.950706 417.705078,113.409683 
	C421.782715,114.766197 425.423920,115.747704 429.065155,116.729218 
	C430.347229,116.878548 431.629272,117.027893 433.374329,117.485489 
	C433.900787,118.175270 433.964294,118.556786 433.786560,119.231354 
	C429.470490,120.105225 425.350708,120.478531 421.338776,121.349037 
	C419.129150,121.828484 417.100891,123.143639 414.566742,124.068398 
	C412.453857,123.969307 410.765045,123.883842 408.952545,123.455971 
	C402.738464,120.657089 396.544983,119.048973 389.489502,120.842560 
	C385.686554,120.894356 382.335114,120.921753 378.682312,120.689095 
	C375.183105,120.511330 371.614838,118.348312 368.605774,121.992012 
	C366.131348,122.373878 364.053284,122.740318 361.735840,122.866959 
	C359.087982,122.795128 356.679413,122.963104 353.874695,122.957550 
	C347.735474,122.189255 341.984863,121.029427 336.250854,121.106537 
	C319.584961,121.330658 302.841553,119.738609 286.266846,122.915962 
	C284.392487,123.275276 282.114227,123.171394 280.401245,122.420273 
	C275.294739,120.181122 270.596710,120.356247 265.707123,123.087273 
	C264.520905,123.749809 262.500977,122.919632 260.864410,122.775841 
	C266.338531,120.975220 271.793365,119.112793 277.293304,117.394798 
	C281.232300,116.164398 285.231720,115.127396 289.644745,114.260361 
	C290.511108,114.808846 290.936859,115.101074 291.362640,115.393295 
	C291.549500,114.843285 291.736359,114.293282 291.923218,113.743286 
	C293.323303,113.402046 294.723389,113.060806 296.602966,113.101608 
	C300.318970,114.322678 303.540192,115.804924 306.794830,115.882401 
	C317.372742,116.134186 327.963715,115.936409 338.548035,115.792076 
	C353.886230,115.582924 369.222504,115.231964 384.560638,115.017006 
	C391.597687,114.918381 398.643066,115.158615 405.672211,114.902908 
	C407.813965,114.824997 409.914246,113.605507 412.435181,112.917786 
	C413.906891,112.878738 414.976898,112.830742 416.046936,112.782745 
z"/>
<path fill="#575454" opacity="1.000000" stroke="none" 
	d="
M412.033508,112.908844 
	C409.914246,113.605507 407.813965,114.824997 405.672211,114.902908 
	C398.643066,115.158615 391.597687,114.918381 384.560638,115.017006 
	C369.222504,115.231964 353.886230,115.582924 338.548035,115.792076 
	C327.963715,115.936409 317.372742,116.134186 306.794830,115.882401 
	C303.540192,115.804924 300.318970,114.322678 296.972839,113.082642 
	C298.008514,112.104866 299.153809,111.528114 300.876587,111.216003 
	C302.974792,110.732933 304.495544,109.985229 306.016266,109.237518 
	C306.459625,109.167465 306.902985,109.097412 307.972443,109.298981 
	C312.322815,109.866524 316.045654,110.369484 319.771790,110.395035 
	C322.945160,110.416794 326.119690,109.711426 329.298676,109.664276 
	C331.569092,109.630608 333.874268,110.524071 336.118073,110.363342 
	C344.595795,109.756073 353.052765,108.862778 361.523682,108.150452 
	C362.472473,108.070671 363.454315,108.528572 364.431885,108.624268 
	C374.067902,109.567627 383.701447,110.407349 393.069611,106.895432 
	C394.217560,107.078812 395.365479,107.262184 396.812500,108.012077 
	C398.090881,108.690613 399.070190,108.802628 400.049530,108.914642 
	C400.489563,108.974030 400.929596,109.033424 401.800476,109.520241 
	C403.813660,110.301453 405.395966,110.655243 407.326477,111.036842 
	C409.127655,111.679382 410.580566,112.294106 412.033508,112.908844 
z"/>
<path fill="#433E3F" opacity="1.000000" stroke="none" 
	d="
M271.905151,134.052017 
	C263.894714,131.143112 255.892746,130.758545 247.225967,133.879547 
	C243.783691,133.417908 240.972336,133.447617 238.269928,132.919647 
	C236.373993,132.549210 234.626633,131.418411 232.812912,130.627182 
	C236.915405,129.376785 241.017899,128.126373 245.733459,127.111870 
	C249.476639,129.681473 252.453400,127.647873 255.619156,127.399284 
	C264.582123,126.695480 273.630096,127.134575 282.642242,126.983482 
	C298.930756,126.710411 315.217255,126.182579 331.505402,126.148636 
	C334.341003,126.142731 337.180603,128.041107 339.789856,129.316177 
	C336.435425,131.075256 333.309418,132.578110 329.798859,133.914337 
	C316.144379,130.241302 302.809235,133.076050 289.502899,133.363403 
	C283.634766,133.490143 277.770935,133.816360 271.905151,134.052017 
z"/>
<path fill="#4B4545" opacity="1.000000" stroke="none" 
	d="
M340.018341,129.059952 
	C337.180603,128.041107 334.341003,126.142731 331.505402,126.148636 
	C315.217255,126.182579 298.930756,126.710411 282.642242,126.983482 
	C273.630096,127.134575 264.582123,126.695480 255.619156,127.399284 
	C252.453400,127.647873 249.476639,129.681473 246.108917,127.042747 
	C250.599564,125.427406 255.327820,124.117073 260.460236,122.791290 
	C262.500977,122.919632 264.520905,123.749809 265.707123,123.087273 
	C270.596710,120.356247 275.294739,120.181122 280.401245,122.420273 
	C282.114227,123.171394 284.392487,123.275276 286.266846,122.915962 
	C302.841553,119.738609 319.584961,121.330658 336.250854,121.106537 
	C341.984863,121.029427 347.735474,122.189255 353.708862,123.208626 
	C353.650726,124.156906 353.362213,124.680595 352.737701,125.212936 
	C351.963348,125.310524 351.524994,125.399445 350.734253,125.404922 
	C348.213684,126.522011 346.045471,127.722542 343.570984,128.937134 
	C342.866394,129.039566 342.468048,129.127930 341.729919,129.167267 
	C340.932831,129.098816 340.475586,129.079376 340.018341,129.059952 
z"/>
<path fill="#423233" opacity="1.000000" stroke="none" 
	d="
M466.673767,137.140610 
	C459.699982,135.755554 453.350159,138.648636 446.211304,139.721970 
	C441.436829,137.256454 437.232666,135.110764 432.810730,132.724915 
	C431.726868,131.661469 430.860809,130.838196 430.378235,130.061859 
	C434.825104,129.912704 438.887024,129.607559 442.952393,129.550323 
	C447.248444,129.489868 451.634369,130.222366 455.819855,129.571655 
	C459.532104,128.994522 464.213562,132.431152 466.979065,127.300278 
	C467.639252,127.281052 468.299438,127.261826 469.444397,127.527710 
	C470.638062,128.128128 471.346985,128.443436 472.055908,128.758743 
	C473.327423,128.913177 474.598907,129.067612 476.404755,129.508881 
	C477.646332,130.094742 478.353546,130.393753 479.060791,130.692780 
	C482.964783,131.554337 486.868805,132.415909 491.283417,133.518585 
	C492.216187,134.047516 492.638367,134.335342 493.060516,134.623169 
	C494.535431,134.977600 496.010376,135.332031 497.907867,136.073532 
	C498.537781,136.972961 498.745117,137.485321 498.564941,138.012787 
	C495.234406,137.651703 492.289764,137.287964 489.349274,136.893539 
	C488.088348,136.724426 486.710449,136.049271 485.601440,136.364105 
	C480.764496,137.737259 475.074249,137.542023 472.205872,142.641510 
	C473.158203,137.540253 470.924194,136.265457 466.673767,137.140610 
z"/>
<path fill="#615959" opacity="1.000000" stroke="none" 
	d="
M392.830933,106.648643 
	C383.701447,110.407349 374.067902,109.567627 364.431885,108.624268 
	C363.454315,108.528572 362.472473,108.070671 361.523682,108.150452 
	C353.052765,108.862778 344.595795,109.756073 336.118073,110.363342 
	C333.874268,110.524071 331.569092,109.630608 329.298676,109.664276 
	C326.119690,109.711426 322.945160,110.416794 319.771790,110.395035 
	C316.045654,110.369484 312.322815,109.866524 308.309479,109.316864 
	C312.410431,107.718849 316.800415,106.374580 321.826050,105.255188 
	C324.309937,104.672554 326.158234,103.865051 328.006500,103.057556 
	C328.796356,102.753754 329.586182,102.449951 330.780396,102.485718 
	C336.839417,106.376740 342.768311,103.896881 348.604584,103.650620 
	C351.519928,103.527611 354.468689,103.378914 357.360138,103.666382 
	C364.946564,104.420631 372.510315,105.427132 379.996948,103.029007 
	C381.615204,103.105453 383.233459,103.181900 385.393677,103.557938 
	C386.635193,104.169151 387.334778,104.480766 388.034363,104.792381 
	C389.553680,105.328873 391.072968,105.865364 392.830933,106.648643 
z"/>
<path fill="#494040" opacity="1.000000" stroke="none" 
	d="
M466.666351,127.180573 
	C464.213562,132.431152 459.532104,128.994522 455.819855,129.571655 
	C451.634369,130.222366 447.248444,129.489868 442.952393,129.550323 
	C438.887024,129.607559 434.825104,129.912704 430.040253,129.913300 
	C425.551697,128.504349 421.784607,127.290939 417.742889,125.938675 
	C416.642487,125.227226 415.816650,124.654625 414.990845,124.082031 
	C417.100891,123.143639 419.129150,121.828484 421.338776,121.349037 
	C425.350708,120.478531 429.470490,120.105225 434.166077,119.230545 
	C435.544220,118.881737 436.301514,118.826790 437.058807,118.771843 
	C438.034424,118.901413 439.010071,119.030991 440.496643,119.470734 
	C442.683746,120.233078 444.359894,120.685249 446.036011,121.137421 
	C446.686768,121.178139 447.337555,121.218857 448.463104,121.539505 
	C449.645538,122.130508 450.353149,122.441574 451.060791,122.752655 
	C452.030457,122.897339 453.000092,123.042023 454.499817,123.498962 
	C456.041351,124.109848 457.052887,124.408470 458.064392,124.707100 
	C459.044067,124.857269 460.023712,125.007439 461.528931,125.472321 
	C463.054199,126.104912 464.053925,126.422791 465.053650,126.740669 
	C465.486969,126.847404 465.920319,126.954140 466.666351,127.180573 
z"/>
<path fill="#3D3535" opacity="1.000000" stroke="none" 
	d="
M232.413757,130.677124 
	C234.626633,131.418411 236.373993,132.549210 238.269928,132.919647 
	C240.972336,133.447617 243.783691,133.417908 246.838989,133.955658 
	C244.517685,135.633270 242.015533,137.288498 239.272156,138.268585 
	C232.814026,140.575790 226.240784,142.560837 219.269562,144.452255 
	C216.176697,144.228287 213.528412,144.228287 210.520447,144.228287 
	C210.235031,143.513153 209.767578,142.341888 209.300110,141.170609 
	C208.557953,138.052780 209.455582,136.323441 212.905350,135.585556 
	C219.327682,134.211838 225.650421,132.372559 232.413757,130.677124 
z"/>
<path fill="#6F5E5E" opacity="1.000000" stroke="none" 
	d="
M379.766113,102.752182 
	C372.510315,105.427132 364.946564,104.420631 357.360138,103.666382 
	C354.468689,103.378914 351.519928,103.527611 348.604584,103.650620 
	C342.768311,103.896881 336.839417,106.376740 331.099548,102.493607 
	C347.242157,93.881157 363.408844,95.062752 379.766113,102.752182 
z"/>
<path fill="#361B18" opacity="1.000000" stroke="none" 
	d="
M216.026596,163.058380 
	C216.006195,163.495804 215.985779,163.933228 215.748245,164.848907 
	C215.651169,165.872040 215.771225,166.416916 215.891266,166.961807 
	C214.508072,173.493164 213.108429,180.021103 211.749313,186.557465 
	C211.156540,189.408203 209.798813,192.431656 210.288300,195.101730 
	C211.125946,199.670975 211.529663,204.004395 209.847702,208.808624 
	C209.560181,204.928162 209.221786,200.650528 209.194321,196.370895 
	C209.114349,183.912537 209.158798,171.453369 209.509399,158.676224 
	C214.171646,156.970810 213.609528,161.967438 216.026596,163.058380 
z"/>
<path fill="#302727" opacity="1.000000" stroke="none" 
	d="
M216.305832,162.743500 
	C213.609528,161.967438 214.171646,156.970810 209.596008,158.220779 
	C209.268280,152.742722 209.208908,147.401794 209.224823,141.615753 
	C209.767578,142.341888 210.235031,143.513153 210.520447,144.228287 
	C213.528412,144.228287 216.176697,144.228287 218.920929,144.566208 
	C218.344818,146.629837 217.258560,148.314850 217.084229,150.089462 
	C216.682449,154.179398 216.723618,158.312836 216.305832,162.743500 
z"/>
<path fill="#A12C33" opacity="1.000000" stroke="none" 
	d="
M498.952454,137.997696 
	C498.745117,137.485321 498.537781,136.972961 498.268463,136.190338 
	C499.123535,137.095184 500.855133,138.284973 500.834259,139.443222 
	C500.564575,154.430801 500.045624,169.413895 499.329498,184.679810 
	C498.469177,184.494370 497.868988,184.027237 497.497894,183.041367 
	C498.238892,180.653595 499.176514,178.786484 499.184906,176.915192 
	C499.213043,170.649323 498.909149,164.381989 498.805695,157.821686 
	C498.912445,157.329803 498.945892,157.131439 499.181488,156.856293 
	C499.670471,156.602631 499.769257,156.351669 499.731323,155.650391 
	C499.562073,153.857651 499.341461,152.441162 499.133728,150.601746 
	C499.094360,148.770050 499.042145,147.361313 499.032074,145.515228 
	C499.033630,142.717819 498.993042,140.357758 498.952454,137.997696 
z"/>
<path fill="#A12C33" opacity="1.000000" stroke="none" 
	d="
M475.463928,225.034958 
	C482.763428,222.710480 490.472168,220.388519 498.582336,218.023682 
	C491.280243,220.333023 483.576721,222.685242 475.463928,225.034958 
z"/>
<path fill="#A12C33" opacity="1.000000" stroke="none" 
	d="
M499.464600,216.617828 
	C499.190186,207.288849 499.139923,197.620651 499.176544,187.493500 
	C499.405182,196.782562 499.546967,206.530594 499.464600,216.617828 
z"/>
<path fill="#A12C33" opacity="1.000000" stroke="none" 
	d="
M443.329468,234.389282 
	C448.446228,232.470581 453.816772,230.742752 459.589478,229.016632 
	C454.522156,230.872269 449.052704,232.726212 443.329468,234.389282 
z"/>
<path fill="#A12C33" opacity="1.000000" stroke="none" 
	d="
M412.435181,112.917786 
	C410.580566,112.294106 409.127655,111.679382 407.128784,110.802567 
	C405.709137,110.042015 404.835419,109.543541 403.961700,109.045067 
	C407.911896,110.070160 411.862122,111.095245 415.929626,112.451538 
	C414.976898,112.830742 413.906891,112.878738 412.435181,112.917786 
z"/>
<path fill="#A12C33" opacity="1.000000" stroke="none" 
	d="
M428.951630,116.408539 
	C425.423920,115.747704 421.782715,114.766197 418.016296,113.431274 
	C421.540100,114.081200 425.189087,115.084534 428.951630,116.408539 
z"/>
<path fill="#6F5E5E" opacity="1.000000" stroke="none" 
	d="
M327.633636,103.038010 
	C326.158234,103.865051 324.309937,104.672554 322.217529,105.225876 
	C323.735840,104.320618 325.498291,103.669548 327.633636,103.038010 
z"/>
<path fill="#615959" opacity="1.000000" stroke="none" 
	d="
M305.666321,109.181992 
	C304.495544,109.985229 302.974792,110.732933 301.217468,111.227463 
	C302.426025,110.358337 303.871216,109.742393 305.666321,109.181992 
z"/>
<path fill="#A12C33" opacity="1.000000" stroke="none" 
	d="
M468.224884,227.270111 
	C470.074921,226.383438 472.157715,225.708893 474.626587,225.043671 
	C472.827667,225.862747 470.642639,226.672485 468.224884,227.270111 
z"/>
<path fill="#A12C33" opacity="1.000000" stroke="none" 
	d="
M445.811279,120.858383 
	C444.359894,120.685249 442.683746,120.233078 440.865784,119.486343 
	C442.344818,119.654305 443.965698,120.116821 445.811279,120.858383 
z"/>
<path fill="#A12C33" opacity="1.000000" stroke="none" 
	d="
M436.222687,236.289703 
	C437.462921,235.538498 438.922333,234.990341 440.709412,234.540375 
	C439.505310,235.256653 437.973602,235.874710 436.222687,236.289703 
z"/>
<path fill="#615959" opacity="1.000000" stroke="none" 
	d="
M403.631958,109.062637 
	C404.835419,109.543541 405.709137,110.042015 406.780579,110.774765 
	C405.395966,110.655243 403.813660,110.301453 402.117493,109.625465 
	C402.436462,109.228912 402.869324,109.154564 403.631958,109.062637 
z"/>
<path fill="#615959" opacity="1.000000" stroke="none" 
	d="
M399.819702,108.676132 
	C399.070190,108.802628 398.090881,108.690613 397.066467,108.251350 
	C397.877563,108.095276 398.733734,108.266449 399.819702,108.676132 
z"/>
<path fill="#A12C33" opacity="1.000000" stroke="none" 
	d="
M457.947296,124.391327 
	C457.052887,124.408470 456.041351,124.109848 454.867615,123.514107 
	C455.747009,123.503174 456.788605,123.789360 457.947296,124.391327 
z"/>
<path fill="#A12C33" opacity="1.000000" stroke="none" 
	d="
M464.944763,126.422256 
	C464.053925,126.422791 463.054199,126.104912 461.900879,125.487396 
	C462.776825,125.493118 463.806335,125.798485 464.944763,126.422256 
z"/>
<path fill="#A12C33" opacity="1.000000" stroke="none" 
	d="
M429.376038,238.023224 
	C430.454468,237.500565 431.908356,236.984543 433.704590,236.440979 
	C432.615143,236.952255 431.183319,237.491058 429.376038,238.023224 
z"/>
<path fill="#A12C33" opacity="1.000000" stroke="none" 
	d="
M436.948853,118.446732 
	C436.301514,118.826790 435.544220,118.881737 434.407379,118.937485 
	C433.964294,118.556786 433.900787,118.175270 433.760712,117.515167 
	C434.735718,117.531601 435.787292,117.826607 436.948853,118.446732 
z"/>
<path fill="#A12C33" opacity="1.000000" stroke="none" 
	d="
M478.959167,130.394531 
	C478.353546,130.393753 477.646332,130.094742 476.789062,129.521027 
	C477.378540,129.529633 478.118042,129.812958 478.959167,130.394531 
z"/>
<path fill="#A12C33" opacity="1.000000" stroke="none" 
	d="
M387.945801,104.485016 
	C387.334778,104.480766 386.635193,104.169151 385.796814,103.582352 
	C386.391113,103.597321 387.124176,103.887482 387.945801,104.485016 
z"/>
<path fill="#A12C33" opacity="1.000000" stroke="none" 
	d="
M471.958679,128.452042 
	C471.346985,128.443436 470.638062,128.128128 469.776184,127.538414 
	C470.369263,127.557793 471.115356,127.851570 471.958679,128.452042 
z"/>
<path fill="#A12C33" opacity="1.000000" stroke="none" 
	d="
M450.961853,122.448502 
	C450.353149,122.441574 449.645538,122.130508 448.789185,121.544525 
	C449.381287,121.561195 450.122101,121.852776 450.961853,122.448502 
z"/>
<path fill="#575454" opacity="1.000000" stroke="none" 
	d="
M291.598206,113.754883 
	C291.736359,114.293282 291.549500,114.843285 291.362640,115.393295 
	C290.936859,115.101074 290.511108,114.808846 290.032990,114.215569 
	C290.411499,113.865173 290.842377,113.815826 291.598206,113.754883 
z"/>
<path fill="#A12C33" opacity="1.000000" stroke="none" 
	d="
M460.376282,229.008636 
	C461.110046,228.705109 462.191132,228.411606 463.624939,228.189758 
	C462.892975,228.513840 461.808289,228.766235 460.376282,229.008636 
z"/>
<path fill="#A12C33" opacity="1.000000" stroke="none" 
	d="
M492.982544,134.356735 
	C492.638367,134.335342 492.216187,134.047516 491.671661,133.515167 
	C492.001038,133.543854 492.452820,133.817078 492.982544,134.356735 
z"/>
<path fill="#A12C33" opacity="1.000000" stroke="none" 
	d="
M465.135071,227.913757 
	C465.000397,227.635590 465.197266,227.380096 465.759827,227.232864 
	C465.842072,227.508591 465.622437,227.707031 465.135071,227.913757 
z"/>
<path fill="#E82325" opacity="1.000000" stroke="none" 
	d="
M233.954224,173.965454 
	C234.020905,173.544434 234.087585,173.123398 234.419235,172.336670 
	C235.776031,169.969940 236.867859,167.968933 238.346008,165.971039 
	C240.743256,165.344711 242.839355,164.903152 244.744217,164.039749 
	C247.306656,162.878235 247.401306,161.351944 245.018082,159.641495 
	C246.818314,157.921219 248.436249,156.478561 250.407684,154.973755 
	C254.203430,153.300613 257.501251,151.144653 261.116486,150.186478 
	C270.004181,147.830917 279.037964,146.026505 288.207520,143.904755 
	C288.647980,143.647934 288.842163,143.438828 289.452942,143.146820 
	C297.266754,143.126602 304.612274,143.141312 311.969849,143.515259 
	C310.978363,145.965393 309.974792,148.056305 308.661865,150.139221 
	C307.940094,150.117767 307.527679,150.104294 306.817078,150.068329 
	C306.319519,150.049423 306.120178,150.052994 305.498291,150.042389 
	C298.756165,149.592819 292.436676,149.157410 286.117157,148.722000 
	C289.685303,153.487717 295.835052,155.032700 296.344360,161.597000 
	C294.268738,160.402130 292.839294,158.487381 290.978241,157.193436 
	C277.477600,147.806686 260.389526,154.338226 255.866699,170.257584 
	C255.153244,172.768753 252.883240,176.465942 250.971695,176.703110 
	C245.243240,177.413864 239.014420,178.476089 233.954224,173.965454 
z"/>
<path fill="#3D3535" opacity="1.000000" stroke="none" 
	d="
M271.940063,134.418808 
	C277.770935,133.816360 283.634766,133.490143 289.502899,133.363403 
	C302.809235,133.076050 316.144379,130.241302 329.550537,134.161194 
	C323.183594,139.023331 316.450806,141.591492 308.105804,141.177689 
	C295.715942,140.563309 283.168427,140.418533 271.004761,143.971344 
	C266.423035,140.391342 271.939392,137.877914 271.940063,134.418808 
z"/>
<path fill="#211E1E" opacity="1.000000" stroke="none" 
	d="
M498.732391,158.115204 
	C498.909149,164.381989 499.213043,170.649323 499.184906,176.915192 
	C499.176514,178.786484 498.238892,180.653595 497.422241,182.759094 
	C494.200958,182.379547 491.284424,181.763535 487.836792,181.443726 
	C486.822418,181.632523 486.339172,181.525116 485.855927,181.417709 
	C476.669617,178.549026 472.081207,170.856247 473.892639,160.497925 
	C480.550415,160.984024 486.716370,161.401779 492.859772,162.037979 
	C496.054413,162.368805 497.818420,160.984650 498.732391,158.115204 
z"/>
<path fill="#A0282A" opacity="1.000000" stroke="none" 
	d="
M233.627762,174.092972 
	C239.014420,178.476089 245.243240,177.413864 250.971695,176.703110 
	C252.883240,176.465942 255.153244,172.768753 255.866699,170.257584 
	C260.389526,154.338226 277.477600,147.806686 290.978241,157.193436 
	C292.839294,158.487381 294.268738,160.402130 296.344360,161.597000 
	C295.835052,155.032700 289.685303,153.487717 286.117157,148.722000 
	C292.436676,149.157410 298.756165,149.592819 305.614624,150.198822 
	C306.474121,150.276550 306.794708,150.183685 307.115295,150.090820 
	C307.527679,150.104294 307.940094,150.117767 308.947144,150.382111 
	C313.352783,151.430603 317.163757,152.228256 320.979675,153.269592 
	C320.984650,153.513290 320.998779,154.000610 320.641266,154.014435 
	C319.807556,154.057495 319.331360,154.086731 318.855164,154.115967 
	C313.517273,153.184372 308.202026,152.075241 302.832642,151.390518 
	C299.813263,151.005493 296.704559,151.321167 292.449432,151.321167 
	C300.729645,158.100677 303.259491,166.026596 301.404572,175.260834 
	C300.884460,175.466217 300.364380,175.671600 299.844269,175.876984 
	C298.913940,173.609360 298.022339,171.324921 297.046814,169.076920 
	C291.889618,157.192764 279.028473,150.763428 267.368774,157.757935 
	C260.366760,161.958374 257.171356,168.696854 256.263123,176.729294 
	C256.132446,177.885056 254.311264,179.768066 253.291245,179.755753 
	C246.693405,179.676102 240.099457,179.185425 233.507812,178.772156 
	C232.426361,178.704346 231.362671,178.353409 229.104218,177.889709 
	C231.014053,176.220078 232.157669,175.220276 233.627762,174.092972 
z"/>
<path fill="#E6E8E7" opacity="1.000000" stroke="none" 
	d="
M345.220367,188.690994 
	C345.290253,190.655884 345.290253,192.218445 345.290253,193.780991 
	C345.663330,193.975189 346.036407,194.169403 346.409485,194.363602 
	C349.568024,188.487122 351.210999,180.210037 360.718689,184.552734 
	C356.521484,189.610107 355.665192,195.514526 356.746735,201.651672 
	C351.903625,201.651672 346.955933,201.651672 342.011993,201.651672 
	C341.523773,198.876709 341.003754,195.921173 340.483765,192.965652 
	C340.016235,192.992188 339.548706,193.018707 339.081177,193.045242 
	C339.081177,195.906998 339.081177,198.768768 339.081177,201.947418 
	C337.113708,201.947418 334.571503,201.947418 331.968018,201.947418 
	C335.281769,196.457581 337.773193,190.925842 335.772461,184.295227 
	C341.303650,182.318527 343.720886,183.261627 345.220367,188.690994 
z"/>
<path fill="#781719" opacity="1.000000" stroke="none" 
	d="
M380.035706,167.608078 
	C379.589966,167.647842 379.144257,167.687607 378.203186,167.535172 
	C377.458801,167.134293 377.195831,166.944946 376.996765,166.442871 
	C380.059570,162.952087 383.943054,160.030411 380.353882,155.066833 
	C383.880737,156.638840 387.049103,158.186249 390.767914,160.002487 
	C390.944153,156.173843 391.086639,153.078476 391.563843,149.877197 
	C392.259613,148.164032 392.620636,146.556808 392.985138,144.588959 
	C392.672058,142.853500 392.355530,141.478653 392.061401,139.710938 
	C392.211273,138.543350 392.338684,137.768646 392.747833,137.086761 
	C394.012787,137.782532 394.996033,138.385498 396.250183,138.979263 
	C397.000916,138.767258 397.480713,138.564438 398.267639,138.286041 
	C398.781219,138.167236 398.987640,138.124039 399.491455,138.079681 
	C400.185150,138.064865 400.581451,138.051208 401.029724,138.361725 
	C402.339996,140.638870 404.283142,142.494751 401.747253,145.128433 
	C401.328613,145.820374 401.132904,146.337799 400.920105,146.873260 
	C400.902985,146.891312 400.881592,146.936188 400.584229,147.004913 
	C399.847839,147.690933 399.408875,148.308212 398.963989,148.942734 
	C398.958130,148.959976 398.923553,148.971497 398.570221,149.055603 
	C397.372314,153.281403 395.776123,157.441589 395.877441,161.560013 
	C395.998352,166.475143 395.486877,167.266159 390.520477,166.792358 
	C387.082764,166.464401 383.534546,167.295105 380.035706,167.608078 
z"/>
<path fill="#BD242C" opacity="1.000000" stroke="none" 
	d="
M320.998779,154.000610 
	C320.998779,154.000610 320.984650,153.513290 321.410095,153.259109 
	C322.821014,153.003342 323.887207,153.243546 324.774414,152.947433 
	C326.384155,152.410248 328.570343,151.920319 329.217773,150.713974 
	C329.730835,149.757904 328.256744,147.775208 327.753052,146.219864 
	C327.413727,145.172089 327.227661,144.074661 327.298462,143.146637 
	C333.875885,148.538315 342.040619,146.535583 349.400696,148.955109 
	C350.846161,149.303284 351.931519,149.642578 352.998474,150.348679 
	C351.894745,151.898819 350.809387,153.082169 349.724030,154.265518 
	C350.507812,155.901031 350.486206,157.338272 349.822205,158.356720 
	C349.276794,159.193268 347.968231,159.532288 346.588501,160.071945 
	C339.470093,158.676819 332.761108,157.301590 326.052094,155.926376 
	C325.885223,155.869537 325.718353,155.812714 325.046021,155.499130 
	C323.725739,155.132904 322.910919,155.023422 322.096100,154.913940 
	C321.931641,154.885284 321.767151,154.856628 321.338379,154.590881 
	C321.074066,154.353806 320.998779,154.000610 320.998779,154.000610 
z"/>
<path fill="#E0E0E0" opacity="1.000000" stroke="none" 
	d="
M485.809143,181.810944 
	C486.339172,181.525116 486.822418,181.632523 487.406372,181.473068 
	C488.715149,182.150146 489.923279,183.094086 492.108337,184.801361 
	C490.591370,186.999939 488.811523,189.579544 486.692810,192.708527 
	C485.672272,194.393768 484.990631,195.529633 484.285431,196.704727 
	C483.432800,195.673279 482.680084,194.762665 481.237579,193.017609 
	C480.514099,195.662750 480.045715,197.375229 479.524078,199.282349 
	C482.935913,199.835617 485.786316,200.769943 486.985413,196.921188 
	C487.722778,197.700760 488.460144,198.480347 489.197479,199.259933 
	C487.837616,200.246063 486.542175,201.954269 485.105774,202.082458 
	C480.851440,202.462112 476.541504,202.218307 472.118530,202.218307 
	C474.698120,196.089401 478.033417,190.445969 475.054352,183.820480 
	C478.693817,183.271133 482.228088,182.737656 485.809143,181.810944 
z"/>
<path fill="#E0E0E0" opacity="1.000000" stroke="none" 
	d="
M386.938416,197.745392 
	C384.239044,199.695999 381.817780,202.218231 379.082275,202.624512 
	C376.332672,203.032867 371.763580,202.202011 370.700409,200.355057 
	C369.132416,197.631119 369.193573,193.328094 370.031525,190.076584 
	C370.632141,187.746170 373.315216,185.424576 375.646759,184.188019 
	C379.435608,182.178558 383.844238,181.814209 386.933624,185.557297 
	C389.952881,189.215408 389.585663,193.409576 386.938416,197.745392 
M379.741333,199.242172 
	C380.820618,195.842896 382.023010,192.472610 382.838074,189.011093 
	C382.952057,188.526871 381.216858,187.056595 380.248047,186.962189 
	C375.748077,186.523743 375.293274,190.213562 375.005859,193.178940 
	C374.741455,195.907196 373.419830,200.115845 379.741333,199.242172 
z"/>
<path fill="#AB1E23" opacity="1.000000" stroke="none" 
	d="
M346.997925,160.091843 
	C347.968231,159.532288 349.276794,159.193268 349.822205,158.356720 
	C350.486206,157.338272 350.507812,155.901031 349.724030,154.265518 
	C350.809387,153.082169 351.894745,151.898819 353.415894,150.351242 
	C355.248688,149.977066 356.645630,149.967133 358.451233,149.984039 
	C361.897064,150.350311 364.934265,150.689774 368.189636,151.119598 
	C368.693207,151.363251 368.915314,151.581024 369.043579,152.259064 
	C368.347290,154.608887 367.246521,156.532425 367.106812,158.523407 
	C366.818573,162.629944 364.834564,164.728027 360.441925,165.139404 
	C358.043182,165.048676 356.064056,164.983948 354.084961,164.919205 
	C353.928619,164.854126 353.772308,164.789032 353.322205,164.301056 
	C351.018280,162.616058 349.008087,161.353958 346.997925,160.091843 
z"/>
<path fill="#E0E0E0" opacity="1.000000" stroke="none" 
	d="
M259.830811,202.230316 
	C250.361832,204.272095 247.923294,201.772003 249.382812,192.319138 
	C249.771973,189.798676 249.441620,187.167114 249.441620,183.883270 
	C250.434265,183.883270 251.999802,183.883270 253.565338,183.883270 
	C255.204453,183.883270 256.843567,183.883270 257.715027,183.883270 
	C256.512115,187.851212 255.164215,191.653473 254.298584,195.562515 
	C254.052750,196.672668 255.156616,199.135651 255.737595,199.166458 
	C257.166779,199.242249 259.436157,198.671783 259.972412,197.637695 
	C261.839905,194.036346 263.911682,190.298019 261.881866,185.883392 
	C261.607941,185.287674 262.841431,183.181244 263.463379,183.141891 
	C265.467010,183.015137 267.511047,183.528122 270.612183,183.935272 
	C263.484406,188.790741 267.398376,198.366180 259.830811,202.230316 
z"/>
<path fill="#302727" opacity="1.000000" stroke="none" 
	d="
M498.989929,145.952576 
	C499.042145,147.361313 499.094360,148.770050 498.862885,150.798538 
	C498.392853,152.275574 498.206543,153.132858 497.562927,153.992645 
	C489.104645,154.655975 481.103668,155.316818 473.102661,155.977661 
	C472.714935,153.629913 472.327240,151.282181 472.069824,148.293915 
	C472.468353,147.437103 472.736633,147.220810 473.377930,146.952576 
	C482.163940,146.584610 490.576904,146.268585 498.989929,145.952576 
z"/>
<path fill="#992329" opacity="1.000000" stroke="none" 
	d="
M270.685486,144.153168 
	C283.168427,140.418533 295.715942,140.563309 308.105804,141.177689 
	C316.450806,141.591492 323.183594,139.023331 329.935089,134.327820 
	C333.309418,132.578110 336.435425,131.075256 339.789856,129.316177 
	C340.475586,129.079376 340.932831,129.098816 341.650757,129.496124 
	C338.305328,132.226501 334.699249,134.578995 330.709839,136.942383 
	C328.939117,137.466263 327.203186,137.616287 326.225128,138.555511 
	C322.164185,142.455170 317.273956,143.370255 311.957764,143.156006 
	C304.612274,143.141312 297.266754,143.126602 289.240295,143.209854 
	C288.301392,143.478821 288.119263,143.709702 288.012970,144.000443 
	C279.037964,146.026505 270.004181,147.830917 261.116486,150.186478 
	C257.501251,151.144653 254.203430,153.300613 250.198349,154.861786 
	C249.366592,154.629730 249.168335,154.389252 249.040710,154.090530 
	C256.149200,150.838684 263.257690,147.586838 270.685486,144.153168 
z"/>
<path fill="#E6E8E7" opacity="1.000000" stroke="none" 
	d="
M315.197784,202.301422 
	C309.983978,203.641205 306.454834,202.200577 304.557892,198.150360 
	C302.726807,194.240768 304.883759,187.721954 308.976685,185.081528 
	C312.696991,182.681488 316.904999,181.536652 320.458527,184.588562 
	C322.396576,186.253036 324.150208,189.627625 323.907593,192.020126 
	C323.423859,196.791382 321.150818,201.120270 315.197784,202.301422 
M316.196533,186.773514 
	C311.633850,186.952164 307.626617,193.100296 309.624969,197.167221 
	C310.915741,199.794098 313.240784,200.950562 315.554535,198.454437 
	C318.654480,195.110168 319.803955,191.216171 316.196533,186.773514 
z"/>
<path fill="#E0E0E0" opacity="1.000000" stroke="none" 
	d="
M234.961441,191.908737 
	C235.699509,195.395859 236.406860,198.450821 237.200089,201.876556 
	C234.760193,201.876556 232.114365,201.876556 229.246277,201.876556 
	C229.943054,200.368576 230.569733,199.012299 231.254654,197.529984 
	C223.746872,196.482803 223.519684,196.591400 222.838776,201.445755 
	C221.266617,201.445755 219.688004,201.445755 216.603058,201.445755 
	C224.188446,195.910858 224.192352,185.643005 233.306519,182.526764 
	C233.948822,186.065994 234.439774,188.771271 234.961441,191.908737 
z"/>
<path fill="#921B1F" opacity="1.000000" stroke="none" 
	d="
M360.861572,165.165390 
	C364.834564,164.728027 366.818573,162.629944 367.106812,158.523407 
	C367.246521,156.532425 368.347290,154.608887 369.435974,152.274261 
	C373.237793,152.943237 376.616608,153.992737 379.995422,155.042236 
	C383.943054,160.030411 380.059570,162.952087 376.648224,166.488342 
	C375.123596,167.144119 374.025330,167.422394 372.927063,167.700668 
	C372.755096,167.728027 372.583099,167.755402 371.787781,167.826538 
	C370.422607,167.891190 369.680756,167.912094 368.528046,167.945343 
	C365.698669,167.026932 363.280121,166.096161 360.861572,165.165390 
z"/>
<path fill="#E0E0E0" opacity="1.000000" stroke="none" 
	d="
M296.893677,184.064117 
	C296.437256,186.142395 295.755951,187.848175 295.074646,189.553955 
	C293.744080,188.676682 292.413483,187.799393 290.024445,186.224228 
	C289.168304,191.635498 288.395874,196.517761 287.537109,201.945679 
	C285.677094,201.945679 282.512817,201.945679 280.235718,201.945679 
	C281.758453,197.332535 283.344727,192.526917 284.931030,187.721283 
	C284.552155,187.400101 284.173309,187.078918 283.794464,186.757736 
	C282.233704,187.685852 280.672974,188.613968 278.539551,189.882629 
	C277.608795,186.547516 277.605072,183.476410 281.430969,183.162567 
	C286.461945,182.749893 291.585266,183.462738 296.893677,184.064117 
z"/>
<path fill="#4B0F10" opacity="1.000000" stroke="none" 
	d="
M433.028442,132.965088 
	C437.232666,135.110764 441.436829,137.256454 445.799347,139.705292 
	C445.357697,140.632782 444.853760,141.634918 444.141113,141.816086 
	C441.055786,142.600510 437.909454,143.144989 434.051849,143.925064 
	C435.323669,145.513107 436.079773,146.457199 436.653900,147.752533 
	C435.974060,148.726059 435.476227,149.348343 434.978394,149.970627 
	C431.915833,149.624619 428.853302,149.278610 425.100037,148.669678 
	C423.263214,148.270157 422.117096,148.133560 421.022095,147.647095 
	C422.053314,145.193863 423.033478,143.090469 424.360901,140.918793 
	C427.780884,139.649231 430.853668,138.447952 433.486450,137.418686 
	C433.388306,136.464371 433.208374,134.714722 433.028442,132.965088 
z"/>
<path fill="#E0E0E0" opacity="1.000000" stroke="none" 
	d="
M406.430298,202.287537 
	C404.071472,202.288818 402.110291,202.288818 400.112335,202.288818 
	C401.257477,199.554535 402.403625,197.214050 403.217194,194.763138 
	C404.018463,192.349121 404.482697,189.823227 405.475250,185.807114 
	C402.819946,187.681046 401.320038,188.739548 399.821899,189.796829 
	C397.584961,184.618011 398.438110,182.944763 403.483276,183.028732 
	C408.152283,183.106445 412.816742,183.454269 418.185638,183.717575 
	C417.384277,186.078415 416.746155,187.958328 415.813660,190.705505 
	C414.266174,189.032791 413.273499,187.959747 412.278870,186.893448 
	C409.050720,189.851013 407.648956,197.634720 409.759979,201.926453 
	C408.714813,202.054703 407.771393,202.170486 406.430298,202.287537 
z"/>
<path fill="#E0E0E0" opacity="1.000000" stroke="none" 
	d="
M462.238525,183.856277 
	C463.699707,183.938614 464.774414,184.035706 466.024475,184.148636 
	C462.458191,189.709106 459.211487,194.999435 455.681854,200.093750 
	C454.919434,201.194183 452.981903,202.331131 451.871063,202.097000 
	C450.789307,201.868988 449.611877,200.019348 449.280457,198.682404 
	C448.119781,193.999954 447.306091,189.231476 446.306213,184.223053 
	C448.700226,184.223053 451.561188,184.223053 453.851318,184.223053 
	C453.851318,187.780441 453.851318,191.380157 453.851318,194.979889 
	C454.272308,195.110382 454.693268,195.240875 455.114258,195.371368 
	C456.787445,191.853455 458.460632,188.335541 460.133850,184.817627 
	C459.731140,184.569595 459.328400,184.321579 458.925690,184.073547 
	C459.901154,184.006042 460.876587,183.938522 462.238525,183.856277 
z"/>
<path fill="#252424" opacity="1.000000" stroke="none" 
	d="
M473.191132,156.302185 
	C481.103668,155.316818 489.104645,154.655975 497.677551,154.255554 
	C498.514252,155.024567 498.779022,155.533173 499.025421,156.264435 
	C499.007080,156.487106 498.979340,156.933060 498.979340,156.933060 
	C498.945892,157.131439 498.912445,157.329803 498.805695,157.821686 
	C497.818420,160.984650 496.054413,162.368805 492.859772,162.037979 
	C486.716370,161.401779 480.550415,160.984024 474.123352,160.169708 
	C473.661774,158.784729 473.470673,157.705719 473.191132,156.302185 
z"/>
<path fill="#E0E0E0" opacity="1.000000" stroke="none" 
	d="
M428.078735,188.910843 
	C427.551727,187.150543 427.020325,185.833405 426.242920,183.906570 
	C429.771301,183.906570 433.291077,183.906570 437.049316,183.906570 
	C433.137268,189.505463 431.121094,195.087677 433.148132,201.892944 
	C430.380219,201.892944 427.199036,201.892944 424.669647,201.892944 
	C425.799988,197.730042 426.937164,193.542023 428.078735,188.910843 
z"/>
<path fill="#302727" opacity="1.000000" stroke="none" 
	d="
M414.898010,151.878571 
	C408.216309,152.883759 402.707275,155.475922 400.133301,162.347916 
	C396.192505,157.984222 398.727692,153.402390 398.923553,148.971497 
	C398.923553,148.971497 398.958130,148.959976 399.282715,148.913147 
	C400.032074,148.222946 400.456848,147.579575 400.881592,146.936188 
	C400.881592,146.936188 400.902985,146.891312 401.242737,147.043732 
	C406.020966,148.756943 410.459503,150.317749 414.898010,151.878571 
z"/>
<path fill="#211E1E" opacity="1.000000" stroke="none" 
	d="
M451.037170,171.982910 
	C448.710480,167.263840 446.383820,162.544769 444.088196,157.113663 
	C446.081116,155.607254 448.042938,154.812881 450.057922,154.396179 
	C450.557068,155.846161 451.378479,156.916595 451.384003,157.991196 
	C451.407928,162.654709 455.435577,167.444290 451.037170,171.982910 
z"/>
<path fill="#541817" opacity="1.000000" stroke="none" 
	d="
M398.570221,149.055603 
	C398.727692,153.402390 396.192505,157.984222 399.844513,162.530579 
	C399.064484,170.532043 399.086365,170.421936 390.689667,168.754471 
	C387.495575,168.120163 384.175354,168.120926 380.474182,167.720154 
	C383.534546,167.295105 387.082764,166.464401 390.520477,166.792358 
	C395.486877,167.266159 395.998352,166.475143 395.877441,161.560013 
	C395.776123,157.441589 397.372314,153.281403 398.570221,149.055603 
z"/>
<path fill="#252424" opacity="1.000000" stroke="none" 
	d="
M451.171967,172.306870 
	C455.435577,167.444290 451.407928,162.654709 451.384003,157.991196 
	C451.378479,156.916595 450.557068,155.846161 449.940186,154.113007 
	C450.186005,152.630417 450.602783,151.808640 451.019592,150.986847 
	C454.805573,156.734833 457.242706,162.970764 456.838837,169.922272 
	C456.742065,171.587906 455.069916,173.162003 454.122314,174.778214 
	C453.183807,174.062424 452.245270,173.346634 451.171967,172.306870 
z"/>
<path fill="#CFD0D1" opacity="1.000000" stroke="none" 
	d="
M343.666321,207.676056 
	C347.473969,206.696701 349.574524,208.662308 349.758484,211.588715 
	C349.867828,213.327469 347.929016,216.682999 346.871643,216.698959 
	C344.632263,216.732773 341.474670,215.653870 340.322754,213.937775 
	C338.617584,211.397324 340.405212,208.978287 343.666321,207.676056 
z"/>
<path fill="#CFD0D1" opacity="1.000000" stroke="none" 
	d="
M357.204041,211.288788 
	C359.223755,209.634933 361.095032,208.154419 363.211578,207.244446 
	C363.644684,207.058258 365.242584,208.873871 365.875854,210.005997 
	C367.260834,212.481995 368.243317,215.467575 364.785980,216.812820 
	C361.446320,218.112274 358.704803,216.491440 357.233673,213.140182 
	C357.047638,212.716385 357.165344,212.159271 357.204041,211.288788 
z"/>
<path fill="#CFD0D1" opacity="1.000000" stroke="none" 
	d="
M265.025482,215.077148 
	C265.545715,212.450424 265.499634,209.411728 266.974792,208.146042 
	C269.249207,206.194534 272.279449,207.596237 273.388031,210.182541 
	C274.023865,211.665909 273.304260,215.295517 272.481201,215.538147 
	C270.237152,216.199692 267.613831,215.574783 265.025482,215.077148 
z"/>
<path fill="#361B18" opacity="1.000000" stroke="none" 
	d="
M450.802246,150.663193 
	C450.602783,151.808640 450.186005,152.630417 449.886993,153.735352 
	C448.042938,154.812881 446.081116,155.607254 444.033905,156.760223 
	C441.063873,154.938232 438.179260,152.757645 435.136505,150.273834 
	C435.476227,149.348343 435.974060,148.726059 436.796143,148.044037 
	C441.608521,148.769363 446.096741,149.554443 450.802246,150.663193 
z"/>
<path fill="#E0E0E0" opacity="1.000000" stroke="none" 
	d="
M417.994232,212.908463 
	C417.863342,214.547165 417.734772,215.741669 417.606201,216.936172 
	C417.236298,217.048157 416.866364,217.160141 416.496460,217.272125 
	C415.810699,216.108597 415.124908,214.945068 414.282349,213.515457 
	C413.618225,214.822906 413.038361,215.964493 412.458527,217.106094 
	C412.111450,217.061722 411.764404,217.017349 411.417358,216.972977 
	C411.417358,214.056290 411.417358,211.139603 411.417358,207.523148 
	C412.511078,208.433014 413.357849,209.137466 414.323975,209.941177 
	C415.034149,209.302017 415.931610,208.494278 417.653076,206.944885 
	C417.808044,209.434875 417.902313,210.949570 417.994232,212.908463 
z"/>
<path fill="#CFD0D1" opacity="1.000000" stroke="none" 
	d="
M398.859070,210.305466 
	C398.862396,212.697250 398.862396,214.665955 398.862396,216.092545 
	C396.458588,216.092545 394.368530,216.092545 391.708221,216.092545 
	C391.708221,214.048325 391.708221,211.134674 391.708221,207.132462 
	C393.567688,208.636368 394.914246,209.725449 396.520569,211.024628 
	C396.776703,210.107117 397.092285,208.976639 397.741425,206.651215 
	C398.383972,208.514359 398.619873,209.198380 398.859070,210.305466 
z"/>
<path fill="#CFD0D1" opacity="1.000000" stroke="none" 
	d="
M281.793030,213.425278 
	C281.775665,211.330399 281.775665,209.631805 281.775665,207.933228 
	C282.386810,207.841660 282.997925,207.750092 283.609070,207.658524 
	C284.165405,209.706894 284.721771,211.755264 285.426178,214.348679 
	C286.104492,211.766861 286.650116,209.690048 287.195740,207.613251 
	C287.686401,207.754700 288.177063,207.896164 288.667725,208.037628 
	C289.181213,211.321503 290.163635,214.978210 286.244110,216.889771 
	C283.955048,218.006180 282.146118,216.519852 281.793030,213.425278 
z"/>
<path fill="#CFD0D1" opacity="1.000000" stroke="none" 
	d="
M439.137939,209.332825 
	C444.593048,206.700333 445.542938,207.343964 445.117004,212.693024 
	C445.018585,213.928818 445.447357,215.206589 445.674652,216.743073 
	C443.525726,216.743073 441.594696,216.743073 439.102295,216.743073 
	C439.102295,214.350204 439.102295,212.064087 439.137939,209.332825 
z"/>
<path fill="#541817" opacity="1.000000" stroke="none" 
	d="
M415.255615,151.771240 
	C410.459503,150.317749 406.020966,148.756943 401.259827,147.025681 
	C401.132904,146.337799 401.328613,145.820374 402.134521,145.146576 
	C403.793091,145.341309 405.325287,145.370010 405.809631,146.096924 
	C408.518311,150.161743 412.434631,148.983734 416.125641,148.746094 
	C417.750122,148.641510 419.356415,148.255295 420.970978,147.996948 
	C422.117096,148.133560 423.263214,148.270157 424.660309,148.636932 
	C421.811920,149.799347 418.712555,150.731628 415.255615,151.771240 
z"/>
<path fill="#E0E0E0" opacity="1.000000" stroke="none" 
	d="
M382.965240,214.596863 
	C382.494995,215.666702 381.941528,217.013580 381.513855,216.974747 
	C379.688507,216.808975 377.900299,216.233810 374.935089,215.533051 
	C375.595093,213.844849 376.551270,211.149948 377.800018,208.598190 
	C377.922333,208.348175 380.359589,208.615189 380.824249,209.274796 
	C381.836761,210.712204 382.269958,212.557648 382.965240,214.596863 
z"/>
<path fill="#CFD0D1" opacity="1.000000" stroke="none" 
	d="
M318.652527,211.747192 
	C319.189819,213.118149 319.987335,214.988419 319.751617,215.129257 
	C318.114960,216.107040 316.263641,216.725525 314.700592,217.368942 
	C314.416870,214.458618 313.944794,212.391586 314.127228,210.384033 
	C314.227081,209.285004 315.260468,208.054596 316.215637,207.344543 
	C316.664795,207.010651 318.545441,207.583359 318.685394,208.063507 
	C318.981750,209.080322 318.561188,210.306107 318.652527,211.747192 
z"/>
<path fill="#CFD0D1" opacity="1.000000" stroke="none" 
	d="
M300.731140,207.842377 
	C301.862701,210.691925 302.567047,213.527359 303.359406,216.717041 
	C301.164825,216.717041 299.488251,216.717041 297.154297,216.717041 
	C298.938263,213.809448 293.804443,209.176773 300.731140,207.842377 
z"/>
<path fill="#782728" opacity="1.000000" stroke="none" 
	d="
M346.588501,160.071945 
	C349.008087,161.353958 351.018280,162.616058 353.088318,164.202087 
	C352.660248,164.591537 352.172272,164.657089 351.202942,164.519257 
	C350.541107,164.157303 350.336487,164.041275 350.107727,163.967773 
	C342.223022,161.496902 334.338348,159.026031 326.252869,156.240768 
	C332.761108,157.301590 339.470093,158.676819 346.588501,160.071945 
z"/>
<path fill="#BD242C" opacity="1.000000" stroke="none" 
	d="
M466.527435,137.402008 
	C470.924194,136.265457 473.158203,137.540253 472.079529,142.941254 
	C471.925293,144.029648 471.839233,144.451263 471.477753,144.886429 
	C470.768829,145.205460 470.335327,145.510956 469.901825,145.816437 
	C468.649139,144.722260 467.396423,143.628082 466.119141,141.834686 
	C466.099731,140.156250 466.104919,139.177017 466.110138,138.197800 
	C466.200439,138.019684 466.290771,137.841553 466.527435,137.402008 
z"/>
<path fill="#E0E0E0" opacity="1.000000" stroke="none" 
	d="
M453.949036,211.962799 
	C454.025848,210.378845 454.103027,209.256714 454.187744,208.024231 
	C455.886627,208.024231 457.337494,208.024231 458.848602,208.024231 
	C458.848602,210.873459 458.848602,213.630707 458.848602,216.789642 
	C457.612854,216.848053 456.040039,216.922409 454.174316,217.010605 
	C454.092346,215.340027 454.020844,213.882324 453.949036,211.962799 
z"/>
<path fill="#CFD0D1" opacity="1.000000" stroke="none" 
	d="
M251.579926,214.631638 
	C251.094559,212.369492 250.459488,210.448029 249.735077,208.256226 
	C251.922241,208.256226 254.119247,208.256226 256.752197,208.256226 
	C255.667709,211.038696 254.564758,213.868546 253.119812,217.575821 
	C252.439072,216.526840 251.934647,215.749573 251.579926,214.631638 
z"/>
<path fill="#CFD0D1" opacity="1.000000" stroke="none" 
	d="
M330.661621,209.488861 
	C331.247772,211.889984 331.811859,213.869415 332.580688,216.567307 
	C331.713470,216.675430 330.009552,216.887878 327.801941,217.163116 
	C327.801941,214.405991 327.692230,212.141953 327.830902,209.893219 
	C327.989014,207.329742 329.076355,207.216705 330.661621,209.488861 
z"/>
<path fill="#211E1E" opacity="1.000000" stroke="none" 
	d="
M487.006531,196.520447 
	C485.786316,200.769943 482.935913,199.835617 479.524078,199.282349 
	C480.045715,197.375229 480.514099,195.662750 481.237579,193.017609 
	C482.680084,194.762665 483.432800,195.673279 484.285431,196.704727 
	C484.990631,195.529633 485.672272,194.393768 486.654907,193.084946 
	C486.979797,193.981216 487.003723,195.050476 487.006531,196.520447 
z"/>
<path fill="#681A1B" opacity="1.000000" stroke="none" 
	d="
M360.441925,165.139404 
	C363.280121,166.096161 365.698669,167.026932 368.557098,168.231964 
	C369.016479,168.696762 369.035950,168.887314 369.055450,169.077850 
	C363.248535,171.721313 359.157043,167.299271 354.253784,165.222214 
	C356.064056,164.983948 358.043182,165.048676 360.441925,165.139404 
z"/>
<path fill="#A0282A" opacity="1.000000" stroke="none" 
	d="
M237.959656,165.967911 
	C236.867859,167.968933 235.776031,169.969940 234.417252,172.015717 
	C232.060135,166.603668 235.436508,163.806061 239.779663,161.211319 
	C240.169327,161.133453 240.332718,161.261749 240.228973,161.577164 
	C239.403366,163.251022 238.681503,164.609467 237.959656,165.967911 
z"/>
<path fill="#A0282A" opacity="1.000000" stroke="none" 
	d="
M248.726791,154.213135 
	C249.168335,154.389252 249.366592,154.629730 249.844849,154.923950 
	C248.436249,156.478561 246.818314,157.921219 244.658722,159.650345 
	C243.165436,160.071503 242.213806,160.206192 241.200012,160.260254 
	C241.137878,160.179642 241.012619,160.019150 241.012619,160.019150 
	C243.479370,158.124680 245.946121,156.230209 248.726791,154.213135 
z"/>
<path fill="#423233" opacity="1.000000" stroke="none" 
	d="
M470.020935,146.109558 
	C470.335327,145.510956 470.768829,145.205460 471.753479,145.067749 
	C472.538055,145.825211 472.771454,146.414871 473.004883,147.004532 
	C472.736633,147.220810 472.468353,147.437103 472.078247,147.886139 
	C471.350952,147.546814 470.745483,146.974747 470.020935,146.109558 
z"/>
<path fill="#423233" opacity="1.000000" stroke="none" 
	d="
M465.801086,138.160599 
	C466.104919,139.177017 466.099731,140.156250 466.045776,141.498016 
	C465.828674,140.614838 465.660339,139.369125 465.801086,138.160599 
z"/>
<path fill="#541817" opacity="1.000000" stroke="none" 
	d="
M373.346375,167.791992 
	C374.025330,167.422394 375.123596,167.144119 376.570374,166.820374 
	C377.195831,166.944946 377.458801,167.134293 377.867645,167.520966 
	C376.606873,167.760422 375.186249,167.821869 373.346375,167.791992 
z"/>
<path fill="#541817" opacity="1.000000" stroke="none" 
	d="
M369.380676,169.031921 
	C369.035950,168.887314 369.016479,168.696762 368.967926,168.219604 
	C369.680756,167.912094 370.422607,167.891190 371.533142,167.884781 
	C371.169861,168.261505 370.437866,168.623734 369.380676,169.031921 
z"/>
<path fill="#782728" opacity="1.000000" stroke="none" 
	d="
M322.287476,155.185822 
	C322.910919,155.023422 323.725739,155.132904 324.794434,155.417786 
	C324.191803,155.548035 323.335358,155.502853 322.287476,155.185822 
z"/>
<path fill="#302727" opacity="1.000000" stroke="none" 
	d="
M215.920410,166.639832 
	C215.771225,166.416916 215.651169,165.872040 215.724182,165.176422 
	C215.927994,165.456436 215.938766,165.887146 215.920410,166.639832 
z"/>
<path fill="#782728" opacity="1.000000" stroke="none" 
	d="
M320.641266,154.014435 
	C320.998779,154.000610 321.074066,154.353806 321.094727,154.532883 
	C320.509796,154.662933 319.904205,154.613907 319.076874,154.340424 
	C319.331360,154.086731 319.807556,154.057495 320.641266,154.014435 
z"/>
<path fill="#681A1B" opacity="1.000000" stroke="none" 
	d="
M350.191498,164.141861 
	C350.336487,164.041275 350.541107,164.157303 350.838318,164.444672 
	C350.671753,164.637436 350.445160,164.551605 350.191498,164.141861 
z"/>
<path fill="#A0282A" opacity="1.000000" stroke="none" 
	d="
M240.087601,161.069351 
	C240.098465,160.676361 240.284485,160.413620 240.788269,160.118088 
	C241.012619,160.019150 241.137878,160.179642 241.044556,160.412750 
	C240.746246,160.852341 240.540085,161.057632 240.332718,161.261749 
	C240.332718,161.261749 240.169327,161.133453 240.087601,161.069351 
z"/>
<path fill="#782728" opacity="1.000000" stroke="none" 
	d="
M395.979248,138.988449 
	C394.996033,138.385498 394.012787,137.782532 392.636200,136.636719 
	C392.242828,132.857300 392.242828,129.620743 392.242828,126.360863 
	C388.591553,125.855148 385.789062,124.922806 383.109406,125.195824 
	C374.354065,126.087906 365.643494,127.419243 357.040955,128.254654 
	C362.106079,126.613144 367.045898,125.298607 372.455566,123.998856 
	C380.442322,124.013649 387.959259,124.013649 395.476166,124.013649 
	C395.555939,123.791847 395.635681,123.570045 395.715454,123.348244 
	C393.790649,122.504890 391.865875,121.661530 389.941071,120.818169 
	C396.544983,119.048973 402.738464,120.657089 408.968079,123.826370 
	C411.400421,126.025948 413.693512,127.512703 415.891541,129.359711 
	C413.607910,130.118973 411.419342,130.518005 408.983643,130.633026 
	C406.286041,125.760201 401.550507,127.349678 397.497955,125.918274 
	C397.245819,127.485619 397.046021,128.727615 396.720154,130.078217 
	C396.420776,130.519409 396.494904,130.800140 396.837585,131.357147 
	C396.840302,132.123077 396.821838,132.560852 396.577942,133.299133 
	C396.228088,135.395905 396.103668,137.192184 395.979248,138.988449 
z"/>
<path fill="#BD242C" opacity="1.000000" stroke="none" 
	d="
M371.985718,123.984070 
	C367.045898,125.298607 362.106079,126.613144 356.653320,128.351624 
	C348.193298,132.238770 340.246216,135.701965 331.957275,139.100342 
	C331.386597,139.000793 331.157776,138.966064 330.952820,138.598175 
	C331.015472,137.820511 331.054321,137.375992 331.093201,136.931488 
	C334.699249,134.578995 338.305328,132.226501 341.990570,129.545151 
	C342.468048,129.127930 342.866394,129.039566 343.945282,128.929901 
	C346.779449,127.768509 348.933044,126.628433 351.086639,125.488358 
	C351.524994,125.399445 351.963348,125.310524 352.994873,125.424759 
	C356.383789,124.787537 359.179474,123.947151 361.975189,123.106766 
	C364.053284,122.740318 366.131348,122.373878 368.970093,122.027184 
	C370.460999,122.077629 371.191193,122.108337 371.937256,122.446457 
	C371.963959,123.163940 371.974854,123.573997 371.985718,123.984070 
z"/>
<path fill="#992329" opacity="1.000000" stroke="none" 
	d="
M372.455566,123.998856 
	C371.974854,123.573997 371.963959,123.163940 372.361328,122.401833 
	C374.840942,121.682907 376.912323,121.316025 378.983704,120.949142 
	C382.335114,120.921753 385.686554,120.894356 389.489502,120.842560 
	C391.865875,121.661530 393.790649,122.504890 395.715454,123.348244 
	C395.635681,123.570045 395.555939,123.791847 395.476166,124.013649 
	C387.959259,124.013649 380.442322,124.013649 372.455566,123.998856 
z"/>
<path fill="#681A1B" opacity="1.000000" stroke="none" 
	d="
M415.986572,128.999466 
	C413.693512,127.512703 411.400421,126.025948 409.091797,124.168777 
	C410.765045,123.883842 412.453857,123.969307 414.566742,124.068405 
	C415.816650,124.654625 416.642487,125.227226 417.729736,126.280037 
	C417.322968,127.506653 416.654755,128.253052 415.986572,128.999466 
z"/>
<path fill="#A12C33" opacity="1.000000" stroke="none" 
	d="
M361.735840,122.866959 
	C359.179474,123.947151 356.383789,124.787537 353.330872,125.416100 
	C353.362213,124.680595 353.650726,124.156906 354.105042,123.382156 
	C356.679413,122.963104 359.087982,122.795128 361.735840,122.866959 
z"/>
<path fill="#782728" opacity="1.000000" stroke="none" 
	d="
M378.682312,120.689087 
	C376.912323,121.316025 374.840942,121.682907 372.345490,122.094414 
	C371.191193,122.108337 370.460999,122.077629 369.366455,122.011757 
	C371.614838,118.348312 375.183105,120.511330 378.682312,120.689087 
z"/>
<path fill="#A12C33" opacity="1.000000" stroke="none" 
	d="
M350.734253,125.404922 
	C348.933044,126.628433 346.779449,127.768509 344.251556,128.915833 
	C346.045471,127.722542 348.213684,126.522011 350.734253,125.404922 
z"/>
<path fill="#333031" opacity="1.000000" stroke="none" 
	d="
M473.377930,146.952576 
	C472.771454,146.414871 472.538055,145.825211 472.028931,145.054230 
	C471.839233,144.451263 471.925293,144.029648 472.137695,143.308273 
	C475.074249,137.542023 480.764496,137.737259 485.601440,136.364105 
	C486.710449,136.049271 488.088348,136.724426 489.349274,136.893539 
	C492.289764,137.287964 495.234406,137.651703 498.564911,138.012787 
	C498.993042,140.357758 499.033630,142.717819 499.032043,145.515228 
	C490.576904,146.268585 482.163940,146.584610 473.377930,146.952576 
z"/>
<path fill="#541817" opacity="1.000000" stroke="none" 
	d="
M415.891541,129.359711 
	C416.654755,128.253052 417.322968,127.506653 418.004333,126.418884 
	C421.784607,127.290939 425.551697,128.504349 429.656799,129.866348 
	C430.860809,130.838196 431.726868,131.661469 432.810699,132.724915 
	C433.208374,134.714722 433.388306,136.464371 433.486450,137.418686 
	C430.853668,138.447952 427.780884,139.649231 424.187286,140.622864 
	C419.377411,134.899063 413.896881,133.898621 407.534149,136.059479 
	C405.373901,136.793121 403.164612,137.382339 400.977722,138.037537 
	C400.581451,138.051208 400.185150,138.064865 399.674347,137.793289 
	C402.095245,136.402374 404.734741,135.477234 407.116272,134.104492 
	C408.105011,133.534561 408.542542,132.008377 409.230774,130.917053 
	C411.419342,130.518005 413.607910,130.118973 415.891541,129.359711 
z"/>
<path fill="#423233" opacity="1.000000" stroke="none" 
	d="
M499.043762,156.041779 
	C498.779022,155.533173 498.514252,155.024567 498.134857,154.253052 
	C498.206543,153.132858 498.392853,152.275574 498.850006,151.221497 
	C499.341461,152.441162 499.562073,153.857651 499.572937,155.653687 
	C499.363251,156.033234 499.043762,156.041779 499.043762,156.041779 
z"/>
<path fill="#211E1E" opacity="1.000000" stroke="none" 
	d="
M499.025421,156.264435 
	C499.043762,156.041779 499.363251,156.033234 499.521637,156.029938 
	C499.769257,156.351669 499.670471,156.602631 499.181488,156.856293 
	C498.979340,156.933060 499.007080,156.487106 499.025421,156.264435 
z"/>
<path fill="#D82127" opacity="1.000000" stroke="none" 
	d="
M330.709869,136.942383 
	C331.054321,137.375992 331.015472,137.820511 330.619812,138.661102 
	C329.166351,140.371277 328.069672,141.685364 326.973022,142.999451 
	C327.227661,144.074661 327.413727,145.172089 327.753052,146.219864 
	C328.256744,147.775208 329.730835,149.757904 329.217773,150.713974 
	C328.570343,151.920319 326.384155,152.410248 324.774414,152.947433 
	C323.887207,153.243546 322.821014,153.003342 321.405090,153.015411 
	C317.163757,152.228256 313.352783,151.430603 309.256531,150.390091 
	C309.974792,148.056305 310.978363,145.965393 311.969849,143.515259 
	C317.273956,143.370255 322.164185,142.455170 326.225128,138.555511 
	C327.203186,137.616287 328.939117,137.466263 330.709869,136.942383 
z"/>
<path fill="#D82127" opacity="1.000000" stroke="none" 
	d="
M240.228973,161.577164 
	C240.540085,161.057632 240.746246,160.852341 241.106689,160.493378 
	C242.213806,160.206192 243.165436,160.071503 244.476440,159.927963 
	C247.401306,161.351944 247.306656,162.878235 244.744217,164.039749 
	C242.839355,164.903152 240.743256,165.344711 238.346008,165.971039 
	C238.681503,164.609467 239.403366,163.251022 240.228973,161.577164 
z"/>
<path fill="#D82127" opacity="1.000000" stroke="none" 
	d="
M306.817078,150.068329 
	C306.794708,150.183685 306.474121,150.276550 306.037201,150.212982 
	C306.120178,150.052994 306.319519,150.049423 306.817078,150.068329 
z"/>
<path fill="#D82127" opacity="1.000000" stroke="none" 
	d="
M288.207520,143.904755 
	C288.119263,143.709702 288.301392,143.478821 288.771973,143.244781 
	C288.842163,143.438828 288.647980,143.647934 288.207520,143.904755 
z"/>
<path fill="#060000" opacity="1.000000" stroke="none" 
	d="
M332.299103,139.165161 
	C340.246216,135.701965 348.193298,132.238770 356.528046,128.678604 
	C365.643494,127.419243 374.354065,126.087906 383.109406,125.195824 
	C385.789062,124.922806 388.591553,125.855148 392.242828,126.360863 
	C392.242828,129.620743 392.242828,132.857300 392.354462,136.543884 
	C392.338684,137.768646 392.211273,138.543350 391.678253,139.699310 
	C390.509186,140.111435 389.745758,140.142288 388.659454,140.083160 
	C387.891754,140.002289 387.446899,140.011414 386.632446,140.015381 
	C385.530670,140.111313 384.798523,140.212418 383.790375,140.235382 
	C382.992035,140.319321 382.469696,140.481369 381.525909,140.694336 
	C379.709076,140.973160 378.313690,141.201080 376.710388,141.369324 
	C376.502502,141.309616 376.083618,141.417847 375.619568,141.314713 
	C368.447784,141.457916 361.740021,141.704269 354.629028,141.892700 
	C353.145966,141.894226 352.066132,141.953659 350.563965,141.950516 
	C348.439056,141.941177 346.736481,141.994415 344.607178,141.973358 
	C342.455170,141.968689 340.729919,142.038345 338.689026,142.016739 
	C337.160034,142.164871 335.946594,142.404282 334.720795,142.711975 
	C334.708405,142.780273 334.787567,142.666245 334.595886,142.608490 
	C334.404175,142.550720 334.024872,142.679077 333.643677,142.678619 
	C332.507843,142.779709 331.753174,142.881226 330.768616,142.772339 
	C331.125549,141.429688 331.712311,140.297424 332.299103,139.165161 
z"/>
<path fill="#681A1B" opacity="1.000000" stroke="none" 
	d="
M401.029724,138.361725 
	C403.164612,137.382339 405.373901,136.793121 407.534149,136.059479 
	C413.896881,133.898621 419.377411,134.899063 423.840027,140.691147 
	C423.033478,143.090469 422.053314,145.193863 421.022095,147.647110 
	C419.356415,148.255295 417.750122,148.641510 416.125641,148.746094 
	C412.434631,148.983734 408.518311,150.161743 405.809631,146.096924 
	C405.325287,145.370010 403.793091,145.341309 402.357483,144.972076 
	C404.283142,142.494751 402.339996,140.638870 401.029724,138.361725 
z"/>
<path fill="#302727" opacity="1.000000" stroke="none" 
	d="
M380.353882,155.066833 
	C376.616608,153.992737 373.237793,152.943237 369.466614,151.878525 
	C368.915314,151.581024 368.693207,151.363251 368.036011,150.876617 
	C368.497589,149.726212 369.261566,148.297379 370.175934,148.193619 
	C375.250153,147.617813 380.366821,147.058258 385.456238,147.155701 
	C387.397888,147.192886 389.305817,148.988739 391.229126,149.983109 
	C391.086639,153.078476 390.944153,156.173843 390.767914,160.002487 
	C387.049103,158.186249 383.880737,156.638840 380.353882,155.066833 
z"/>
<path fill="#782728" opacity="1.000000" stroke="none" 
	d="
M391.563843,149.877197 
	C389.305817,148.988739 387.397888,147.192886 385.456238,147.155701 
	C380.366821,147.058258 375.250153,147.617813 370.175934,148.193619 
	C369.261566,148.297379 368.497589,149.726212 367.817810,150.786255 
	C364.934265,150.689774 361.897064,150.350311 358.282104,149.687729 
	C357.277344,148.443176 356.850311,147.521759 355.652985,144.938141 
	C364.594391,144.938141 372.306732,144.938141 380.260315,144.946259 
	C380.501556,144.954391 380.983917,144.934723 381.359192,144.944183 
	C382.484314,144.938950 383.234131,144.924240 384.434326,144.927399 
	C387.583649,144.946716 390.282684,144.948151 392.981689,144.949585 
	C392.620636,146.556808 392.259613,148.164032 391.563843,149.877197 
z"/>
<path fill="#000000" opacity="1.000000" stroke="none" 
	d="
M408.983643,130.633026 
	C408.542542,132.008377 408.105011,133.534561 407.116272,134.104492 
	C404.734741,135.477234 402.095245,136.402374 399.376953,137.794464 
	C398.987640,138.124039 398.781219,138.167236 398.021851,137.965790 
	C397.247070,136.146942 397.025238,134.572769 396.803406,132.998611 
	C396.821838,132.560852 396.840302,132.123077 396.883362,131.093384 
	C396.887360,130.324188 396.866791,130.146912 396.846222,129.969620 
	C397.046021,128.727615 397.245819,127.485619 397.497955,125.918274 
	C401.550507,127.349678 406.286041,125.760201 408.983643,130.633026 
z"/>
<path fill="#921B1F" opacity="1.000000" stroke="none" 
	d="
M392.985168,144.588959 
	C390.282684,144.948151 387.583649,144.946716 384.437439,144.563904 
	C383.992279,143.450592 383.994293,142.718613 384.003387,141.707184 
	C384.029083,141.056305 384.047729,140.684906 384.066376,140.313507 
	C384.798523,140.212418 385.530670,140.111313 386.773743,140.225739 
	C387.850555,140.351883 388.416412,140.262512 388.982300,140.173141 
	C389.745758,140.142288 390.509186,140.111435 391.655823,140.092194 
	C392.355530,141.478653 392.672058,142.853500 392.985168,144.588959 
z"/>
<path fill="#541817" opacity="1.000000" stroke="none" 
	d="
M396.577942,133.299133 
	C397.025238,134.572769 397.247070,136.146942 397.714722,138.041382 
	C397.480713,138.564438 397.000916,138.767258 396.250183,138.979263 
	C396.103668,137.192184 396.228088,135.395905 396.577942,133.299133 
z"/>
<path fill="#541817" opacity="1.000000" stroke="none" 
	d="
M400.584229,147.004929 
	C400.456848,147.579575 400.032074,148.222946 399.288574,148.895905 
	C399.408875,148.308212 399.847839,147.690933 400.584229,147.004929 
z"/>
<path fill="#992329" opacity="1.000000" stroke="none" 
	d="
M383.996338,141.986633 
	C383.994293,142.718613 383.992279,143.450592 383.987122,144.546051 
	C383.234131,144.924240 382.484314,144.938950 381.265289,144.808289 
	C380.462952,144.476715 380.203949,144.568466 380.019073,144.938141 
	C372.306732,144.938141 364.594391,144.938141 355.652985,144.938141 
	C356.850311,147.521759 357.277344,148.443176 357.873474,149.660889 
	C356.645630,149.967133 355.248688,149.977066 353.434326,149.984436 
	C351.931519,149.642578 350.846161,149.303284 349.403625,148.585541 
	C350.117706,147.177155 351.222870,146.179794 352.250366,145.107910 
	C353.220184,144.096237 354.108246,143.006180 355.032288,141.950607 
	C361.740021,141.704269 368.447784,141.457916 375.710144,141.395966 
	C376.264740,141.580353 376.613983,141.622482 376.613983,141.622482 
	C376.613983,141.622482 376.918304,141.429016 376.918304,141.429016 
	C378.313690,141.201080 379.709076,140.973160 381.672363,140.992874 
	C382.825623,141.489227 383.410980,141.737930 383.996338,141.986633 
z"/>
<path fill="#AB1E23" opacity="1.000000" stroke="none" 
	d="
M354.629028,141.892685 
	C354.108246,143.006180 353.220184,144.096237 352.250366,145.107910 
	C351.222870,146.179794 350.117706,147.177155 349.043518,148.576630 
	C342.040619,146.535583 333.875885,148.538315 327.298462,143.146637 
	C328.069672,141.685364 329.166351,140.371277 330.596008,138.994263 
	C331.157776,138.966064 331.386597,139.000793 331.957275,139.100342 
	C331.712311,140.297424 331.125549,141.429688 330.866669,143.143311 
	C333.953400,145.483063 336.642639,146.393753 338.996338,142.841034 
	C339.007111,142.596848 339.004639,142.108002 339.004639,142.108002 
	C340.729919,142.038345 342.455170,141.968689 344.864136,142.225708 
	C347.360657,142.372604 349.173492,142.192856 350.986298,142.013092 
	C352.066132,141.953659 353.145966,141.894226 354.629028,141.892685 
z"/>
<path fill="#030202" opacity="1.000000" stroke="none" 
	d="
M379.369110,199.357849 
	C373.419830,200.115845 374.741455,195.907196 375.005859,193.178940 
	C375.293274,190.213562 375.748077,186.523743 380.248047,186.962189 
	C381.216858,187.056595 382.952057,188.526871 382.838074,189.011093 
	C382.023010,192.472610 380.820618,195.842896 379.369110,199.357849 
z"/>
<path fill="#211E1E" opacity="1.000000" stroke="none" 
	d="
M316.595398,186.877716 
	C319.803955,191.216171 318.654480,195.110168 315.554535,198.454437 
	C313.240784,200.950562 310.915741,199.794098 309.624969,197.167221 
	C307.626617,193.100296 311.633850,186.952164 316.595398,186.877716 
z"/>
<path fill="#541817" opacity="1.000000" stroke="none" 
	d="
M396.720154,130.078217 
	C396.866791,130.146912 396.887360,130.324188 396.862183,130.765228 
	C396.494904,130.800140 396.420776,130.519409 396.720154,130.078217 
z"/>
<path fill="#BD242C" opacity="1.000000" stroke="none" 
	d="
M338.985565,143.085220 
	C336.642639,146.393753 333.953400,145.483063 331.096558,143.353714 
	C331.753174,142.881226 332.507843,142.779709 333.700653,142.877228 
	C334.355072,142.939606 334.571320,142.802933 334.787567,142.666260 
	C334.787567,142.666245 334.708405,142.780273 335.137238,142.842072 
	C336.705902,142.964325 337.845734,143.024780 338.985565,143.085220 
z"/>
<path fill="#992329" opacity="1.000000" stroke="none" 
	d="
M338.996338,142.841034 
	C337.845734,143.024780 336.705902,142.964325 335.149628,142.773788 
	C335.946594,142.404282 337.160034,142.164871 338.689026,142.016739 
	C339.004639,142.108002 339.007111,142.596848 338.996338,142.841034 
z"/>
<path fill="#992329" opacity="1.000000" stroke="none" 
	d="
M350.563965,141.950516 
	C349.173492,142.192856 347.360657,142.372604 345.290894,142.300003 
	C346.736481,141.994415 348.439056,141.941177 350.563965,141.950516 
z"/>
<path fill="#781719" opacity="1.000000" stroke="none" 
	d="
M384.003387,141.707169 
	C383.410980,141.737930 382.825623,141.489227 382.093811,140.941956 
	C382.469696,140.481369 382.992035,140.319321 383.790375,140.235382 
	C384.047729,140.684906 384.029083,141.056305 384.003387,141.707169 
z"/>
<path fill="#781719" opacity="1.000000" stroke="none" 
	d="
M388.659454,140.083160 
	C388.416412,140.262512 387.850555,140.351883 387.143372,140.230896 
	C387.446899,140.011414 387.891754,140.002289 388.659454,140.083160 
z"/>
<path fill="#921B1F" opacity="1.000000" stroke="none" 
	d="
M376.710388,141.369324 
	C376.918304,141.429016 376.613983,141.622482 376.613983,141.622482 
	C376.613983,141.622482 376.264740,141.580353 376.174194,141.499100 
	C376.083618,141.417847 376.502502,141.309616 376.710388,141.369324 
z"/>
<path fill="#AB1E23" opacity="1.000000" stroke="none" 
	d="
M334.595886,142.608490 
	C334.571320,142.802933 334.355072,142.939606 334.081848,142.877686 
	C334.024872,142.679077 334.404175,142.550720 334.595886,142.608490 
z"/>
<path fill="#921B1F" opacity="1.000000" stroke="none" 
	d="
M380.260315,144.946259 
	C380.203949,144.568466 380.462952,144.476715 380.890015,144.798813 
	C380.983917,144.934723 380.501556,144.954391 380.260315,144.946259 
z"/>
</svg>